<svg width="138" height="31" viewBox="0 0 138 31" fill="none" xmlns="http://www.w3.org/2000/svg">
<path fill-rule="evenodd" clip-rule="evenodd" d="M14.1792 14.6689C14.2311 14.6977 14.2859 14.721 14.3426 14.7384C17.3043 16.3789 15.7193 18.7703 13.5779 20.1748L13.5501 20.1886H13.5362C14.7454 17.0325 3.91508 16.24 2.08008 13.2792C2.09397 13.3069 2.10785 13.3208 2.12174 13.3486C2.06618 12.0692 2.83092 11.0128 4.10954 10.123C1.80148 13.1819 10.5639 13.1958 14.1751 14.6697" fill="url(#paint0_linear_24_643)"/>
<path fill-rule="evenodd" clip-rule="evenodd" d="M14.3353 14.7402C20.8975 16.6447 23.4417 21.9561 15.8786 24.2919C10.4864 25.9463 1.78111 25.2233 1.15528 30.3672C-1.73612 26.2822 2.42084 24.278 7.49529 22.5541C14.8917 20.9275 18.2283 16.8947 14.3353 14.7402Z" fill="url(#paint1_linear_24_643)"/>
<path fill-rule="evenodd" clip-rule="evenodd" d="M18.1314 0.00326625C23.9567 -0.0245121 22.8864 5.37021 18.4925 5.92577C12.8478 6.91272 1.89251 8.69218 2.11473 13.3606C-2.97361 6.74279 12.8339 0.206704 18.1282 0" fill="url(#paint2_linear_24_643)"/>
<path d="M38.8474 18.5728C38.842 19.0589 38.7378 19.5387 38.5411 19.9833C38.3445 20.4278 38.0595 20.8277 37.7036 21.1587C37.2411 21.5914 36.6842 21.9103 36.0769 22.0901C35.5002 22.266 34.9004 22.3549 34.2975 22.354H34.2836C33.5941 22.3599 32.9084 22.252 32.2541 22.0345C31.5712 21.8143 30.9513 21.4329 30.4469 20.9226C29.7342 20.2063 29.3344 19.2369 29.335 18.2264V18.1014C29.3373 18.0194 29.3564 17.9388 29.391 17.8644C29.4256 17.79 29.475 17.7235 29.5361 17.6688C29.5973 17.6141 29.669 17.5725 29.7468 17.5464C29.8245 17.5204 29.9068 17.5105 29.9886 17.5173C30.1546 17.5279 30.3103 17.6014 30.424 17.7228C30.5377 17.8443 30.6009 18.0045 30.6005 18.1709V18.2526C30.6061 18.9447 30.8803 19.6076 31.3652 20.1015C31.7448 20.4727 32.2002 20.7572 32.7002 20.9356C33.2233 21.1165 33.7735 21.2058 34.3269 21.1995H34.3408C34.8122 21.2083 35.2816 21.1379 35.7297 20.9912C36.165 20.8615 36.5646 20.6331 36.8972 20.3237C37.3637 19.8697 37.6334 19.2506 37.648 18.5998V18.5582C37.6462 18.3941 37.7096 18.2361 37.8243 18.1188C37.939 18.0015 38.0955 17.9346 38.2595 17.9327C38.4236 17.9309 38.5816 17.9943 38.6989 18.109C38.8162 18.2236 38.8831 18.3802 38.885 18.5442V18.5998L38.8474 18.5728ZM36.3449 10.0506C35.7577 9.64314 35.0579 9.42921 34.3432 9.43867H34.3016C33.9278 9.43415 33.5561 9.49527 33.2035 9.61923C32.8639 9.73563 32.5517 9.92024 32.286 10.1617C31.9643 10.4855 31.7715 10.9153 31.7435 11.3709C31.7411 11.4529 31.722 11.5335 31.6875 11.6079C31.6529 11.6823 31.6035 11.7489 31.5423 11.8036C31.4812 11.8582 31.4095 11.8999 31.3317 11.9259C31.2539 11.952 31.1717 11.9619 31.0899 11.9551C31.0083 11.9516 30.9282 11.9317 30.8543 11.8968C30.7805 11.8618 30.7144 11.8124 30.66 11.7515C30.6055 11.6906 30.5638 11.6193 30.5373 11.5421C30.5109 11.4648 30.5001 11.383 30.5057 11.3015C30.5461 10.5503 30.8572 9.83919 31.3816 9.29979C31.7681 8.90723 32.2389 8.60771 32.7582 8.42394C33.2328 8.26912 33.7297 8.19402 34.2288 8.20171H34.2705C35.2412 8.18964 36.1906 8.48667 36.9814 9.04979C37.4071 9.36921 37.7589 9.77676 38.0127 10.2446C38.2665 10.7125 38.4163 11.2296 38.452 11.7606C38.4612 11.9247 38.4049 12.0856 38.2954 12.2081C38.1859 12.3306 38.0323 12.4046 37.8682 12.4138C37.7042 12.423 37.5432 12.3667 37.4207 12.2572C37.2982 12.1477 37.2243 11.9941 37.215 11.8301C37.1905 11.4755 37.0896 11.1304 36.9192 10.8185C36.7489 10.5066 36.5131 10.2351 36.2281 10.0228H36.3392L36.3449 10.0506ZM32.5352 13.2623C33.088 13.7895 33.7535 14.184 34.4813 14.4159C35.4994 14.6875 36.4732 15.104 37.3727 15.6529C37.5831 15.7966 37.7787 15.9608 37.9569 16.1431C38.0602 16.2616 38.1129 16.4159 38.1037 16.5729C38.0944 16.7299 38.024 16.877 37.9075 16.9826C37.791 17.0882 37.6377 17.1439 37.4805 17.1377C37.3234 17.1315 37.175 17.0639 37.0671 16.9494C36.9391 16.8264 36.8043 16.7105 36.6635 16.6022C35.8397 16.142 34.9614 15.7871 34.0491 15.5458C33.1461 15.25 32.3231 14.7504 31.6438 14.0858C31.4358 13.8665 31.2537 13.6239 31.1013 13.3628C31.0556 13.2962 31.0237 13.2211 31.0075 13.1419C30.9913 13.0628 30.9912 12.9812 31.0071 12.902C31.023 12.8228 31.0547 12.7475 31.1002 12.6808C31.1457 12.614 31.2041 12.5571 31.2721 12.5133C31.34 12.4696 31.416 12.4399 31.4956 12.4261C31.5752 12.4122 31.6568 12.4145 31.7355 12.4328C31.8142 12.451 31.8884 12.4849 31.9538 12.5324C32.0192 12.5799 32.0743 12.64 32.1161 12.7092C32.2436 12.898 32.388 13.0749 32.5475 13.2378V13.2655L32.5352 13.2623Z" fill="#00579F"/>
<path d="M42.5047 22.368C42.4238 22.3697 42.3435 22.355 42.2685 22.3249C42.1935 22.2947 42.1254 22.2497 42.0682 22.1925C42.0111 22.1354 41.9661 22.0673 41.9359 21.9923C41.9057 21.9173 41.891 21.8369 41.8927 21.7561V8.79831C41.8927 8.63579 41.9573 8.47993 42.0722 8.36502C42.1871 8.2501 42.343 8.18555 42.5055 8.18555C42.668 8.18555 42.8238 8.2501 42.9388 8.36502C43.0537 8.47993 43.1182 8.63579 43.1182 8.79831V21.7561C43.1188 21.8368 43.1033 21.9167 43.0726 21.9913C43.0419 22.0659 42.9968 22.1336 42.9397 22.1906C42.8825 22.2476 42.8147 22.2926 42.74 22.323C42.6653 22.3535 42.5853 22.3688 42.5047 22.368ZM43.9753 11.6211C44.1194 11.5534 44.2843 11.5445 44.4348 11.5964C44.5854 11.6482 44.7098 11.7567 44.7817 11.8989L49.6478 21.52C49.7179 21.6638 49.728 21.8295 49.6759 21.9807C49.6238 22.1319 49.5138 22.2563 49.37 22.3264C49.2263 22.3965 49.0605 22.4066 48.9093 22.3545C48.758 22.3024 48.6337 22.1924 48.5636 22.0486L43.6975 12.4275C43.661 12.3563 43.6393 12.2784 43.6338 12.1985C43.6282 12.1187 43.6389 12.0386 43.6652 11.963C43.6914 11.8874 43.7327 11.8179 43.7866 11.7587C43.8404 11.6995 43.9058 11.6519 43.9786 11.6186L43.9753 11.6211ZM56.2378 8.25663C56.3107 8.29322 56.3755 8.34406 56.4284 8.40613C56.4813 8.4682 56.5213 8.54022 56.5459 8.61799C56.5705 8.69575 56.5793 8.77766 56.5717 8.85887C56.5641 8.94008 56.5403 9.01894 56.5017 9.0908L51.0931 19.5044C51.0555 19.5765 51.0041 19.6405 50.9419 19.6928C50.8796 19.745 50.8076 19.7845 50.7301 19.8089C50.6525 19.8333 50.571 19.8422 50.49 19.8351C50.409 19.828 50.3302 19.805 50.2581 19.7675C50.186 19.7299 50.122 19.6786 50.0697 19.6163C50.0175 19.554 49.978 19.482 49.9536 19.4045C49.9292 19.327 49.9203 19.2454 49.9274 19.1644C49.9345 19.0834 49.9574 19.0046 49.995 18.9325L55.4036 8.5189C55.4809 8.37431 55.6119 8.26583 55.7683 8.21679C55.9248 8.16774 56.0943 8.18204 56.2403 8.25663H56.2378ZM55.96 22.368C55.8792 22.3697 55.7988 22.355 55.7238 22.3249C55.6488 22.2947 55.5807 22.2497 55.5236 22.1925C55.4664 22.1354 55.4214 22.0673 55.3912 21.9923C55.3611 21.9173 55.3464 21.8369 55.3481 21.7561V12.7191C55.3481 12.5566 55.4126 12.4008 55.5275 12.2859C55.6424 12.1709 55.7983 12.1064 55.9608 12.1064C56.1233 12.1064 56.2792 12.1709 56.3941 12.2859C56.509 12.4008 56.5736 12.5566 56.5736 12.7191V21.7561C56.5764 21.8372 56.5626 21.9179 56.5329 21.9934C56.5032 22.0689 56.4583 22.1375 56.401 22.1949C56.3437 22.2523 56.2752 22.2972 56.1997 22.327C56.1243 22.3568 56.0435 22.3708 55.9625 22.368H55.96Z" fill="#00579F"/>
<path d="M63.9835 10.7321C64.1307 10.7988 64.2455 10.921 64.3028 11.0722C64.3601 11.2233 64.3551 11.391 64.2891 11.5385L59.7849 22.0354C59.7185 22.1829 59.5962 22.2979 59.445 22.3552C59.2938 22.4125 59.126 22.4074 58.9785 22.341C58.8311 22.2746 58.716 22.1523 58.6587 22.0011C58.6014 21.8498 58.6065 21.682 58.6729 21.5346L63.1665 11.0515C63.2334 10.9017 63.3567 10.7841 63.5096 10.7244C63.6624 10.6646 63.8326 10.6674 63.9835 10.7321ZM67.0007 17.1971C67.0024 17.2779 66.9877 17.3582 66.9576 17.4332C66.9274 17.5082 66.8824 17.5763 66.8252 17.6335C66.7681 17.6906 66.6999 17.7357 66.6249 17.7658C66.5499 17.796 66.4696 17.8107 66.3888 17.809H63.1493C62.9868 17.809 62.831 17.7445 62.716 17.6295C62.6011 17.5146 62.5366 17.3588 62.5366 17.1963C62.5366 17.0337 62.6011 16.8779 62.716 16.763C62.831 16.6481 62.9868 16.5835 63.1493 16.5835H66.3888C66.4695 16.5818 66.5498 16.5965 66.6247 16.6266C66.6997 16.6567 66.7678 16.7017 66.8249 16.7587C66.8821 16.8158 66.9271 16.8838 66.9573 16.9587C66.9875 17.0336 67.0023 17.1139 67.0007 17.1946V17.1971ZM70.6013 22.3442C70.4538 22.4103 70.2861 22.4152 70.135 22.358C69.9839 22.3007 69.8616 22.1859 69.7949 22.0387L64.2474 9.08088C64.181 8.93342 64.1759 8.76563 64.2332 8.6144C64.2905 8.46317 64.4055 8.3409 64.553 8.27449C64.7004 8.20807 64.8682 8.20297 65.0195 8.26027C65.1707 8.31758 65.2929 8.43261 65.3594 8.58007L70.9068 21.524C70.971 21.6734 70.9751 21.8418 70.9182 21.9942C70.8612 22.1465 70.7477 22.271 70.6013 22.3418V22.3442Z" fill="#00579F"/>
<path d="M76.8585 8.21454C79.1249 8.21454 80.6405 9.4515 80.6405 11.8984C80.6405 14.3315 79.0972 15.499 76.9002 15.499H73.7841C73.6216 15.499 73.4657 15.4345 73.3508 15.3196C73.2359 15.2046 73.1713 15.0488 73.1713 14.8863C73.1713 14.7238 73.2359 14.5679 73.3508 14.453C73.4657 14.3381 73.6216 14.2735 73.7841 14.2735H76.8986C78.928 14.2735 79.4313 13.1199 79.4313 11.8682C79.4313 10.4499 78.8055 9.39349 76.8594 9.39349H73.6616C73.4991 9.39349 73.3432 9.32893 73.2283 9.21402C73.1134 9.0991 73.0488 8.94324 73.0488 8.78073C73.0488 8.61821 73.1134 8.46238 73.2283 8.34746C73.3432 8.23255 73.4991 8.16797 73.6616 8.16797H76.8594L76.8585 8.21454ZM74.7343 16.0979C74.8461 15.9857 74.9972 15.9215 75.1555 15.9189C75.3139 15.9163 75.467 15.9755 75.5823 16.084L81.1299 21.3529C81.1865 21.4077 81.2317 21.4731 81.263 21.5453C81.2943 21.6176 81.3111 21.6953 81.3124 21.7741C81.3137 21.8528 81.2995 21.931 81.2705 22.0043C81.2416 22.0775 81.1985 22.1444 81.1437 22.201C81.089 22.2576 81.0236 22.3028 80.9514 22.3341C80.8791 22.3655 80.8014 22.3822 80.7226 22.3835C80.6439 22.3848 80.5656 22.3706 80.4924 22.3416C80.4191 22.3127 80.3523 22.2696 80.2957 22.2149L74.7482 16.9459C74.6355 16.8346 74.5708 16.6837 74.5676 16.5254C74.5644 16.3671 74.623 16.2137 74.731 16.0979H74.7343Z" fill="#00579F"/>
<path d="M94.1399 8.81317C94.1416 8.89399 94.1269 8.97431 94.0967 9.04931C94.0666 9.12431 94.0215 9.19244 93.9644 9.2496C93.9072 9.30676 93.8391 9.35176 93.7641 9.38192C93.6891 9.41208 93.6088 9.42677 93.5279 9.4251H84.0327C83.8702 9.4251 83.7143 9.36055 83.5993 9.24563C83.4844 9.13072 83.4199 8.97486 83.4199 8.81234C83.4199 8.64983 83.4844 8.49397 83.5993 8.37906C83.7143 8.26414 83.8702 8.19959 84.0327 8.19959H93.5279C93.6092 8.19672 93.6903 8.21063 93.7659 8.24048C93.8416 8.27032 93.9102 8.31544 93.9677 8.37302C94.0251 8.4306 94.07 8.4994 94.0996 8.57513C94.1292 8.65086 94.143 8.7319 94.1399 8.81317ZM88.7868 10.0223C88.8677 10.0207 88.948 10.0353 89.023 10.0655C89.098 10.0957 89.1661 10.1407 89.2233 10.1979C89.2804 10.255 89.3255 10.3231 89.3556 10.3981C89.3858 10.4731 89.4005 10.5535 89.3988 10.6343V21.7702C89.3988 21.9327 89.3342 22.0885 89.2193 22.2034C89.1044 22.3183 88.9486 22.3829 88.786 22.3829C88.6235 22.3829 88.4676 22.3183 88.3527 22.2034C88.2378 22.0885 88.1733 21.9327 88.1733 21.7702V10.6343C88.1716 10.5533 88.1863 10.4729 88.2166 10.3977C88.2468 10.3226 88.292 10.2544 88.3493 10.1973C88.4067 10.1401 88.475 10.0951 88.5502 10.065C88.6254 10.035 88.7059 10.0204 88.7868 10.0223Z" fill="#00579F"/>
<path d="M102.453 8.20032C102.534 8.19865 102.615 8.21332 102.69 8.24348C102.765 8.27364 102.833 8.31867 102.89 8.37583C102.947 8.43299 102.992 8.50112 103.022 8.57612C103.052 8.65112 103.067 8.73144 103.065 8.81226V21.77C103.065 21.9326 103.001 22.0884 102.886 22.2033C102.771 22.3182 102.615 22.3828 102.453 22.3828C102.29 22.3828 102.134 22.3182 102.019 22.2033C101.904 22.0884 101.84 21.9326 101.84 21.77V8.81226C101.839 8.73161 101.855 8.65166 101.885 8.57706C101.916 8.50247 101.961 8.4347 102.018 8.37775C102.075 8.32079 102.143 8.27577 102.218 8.2453C102.293 8.21484 102.373 8.19956 102.453 8.20032ZM103.872 21.7692C103.87 21.6884 103.885 21.6081 103.915 21.5331C103.945 21.4581 103.99 21.39 104.047 21.3328C104.104 21.2757 104.173 21.2306 104.248 21.2005C104.323 21.1703 104.403 21.1556 104.484 21.1573H110.573C110.735 21.1573 110.891 21.2218 111.006 21.3368C111.121 21.4517 111.186 21.6075 111.186 21.77C111.186 21.9326 111.121 22.0884 111.006 22.2033C110.891 22.3182 110.735 22.3828 110.573 22.3828H104.484C104.403 22.3835 104.323 22.368 104.248 22.3374C104.174 22.3068 104.106 22.2616 104.049 22.2045C103.992 22.1474 103.947 22.0795 103.916 22.0047C103.885 21.93 103.871 21.85 103.872 21.7692Z" fill="#00579F"/>
<path d="M113.756 8.20036C113.837 8.19869 113.917 8.21336 113.992 8.24352C114.067 8.27368 114.136 8.3187 114.193 8.37586C114.25 8.43302 114.295 8.50115 114.325 8.57615C114.355 8.65115 114.37 8.73148 114.368 8.81229V21.7701C114.368 21.9326 114.304 22.0885 114.189 22.2034C114.074 22.3183 113.918 22.3828 113.755 22.3828C113.593 22.3828 113.437 22.3183 113.322 22.2034C113.207 22.0885 113.143 21.9326 113.143 21.7701V8.81229C113.141 8.73133 113.156 8.65086 113.186 8.57575C113.216 8.50064 113.261 8.43245 113.319 8.37527C113.376 8.31808 113.445 8.27311 113.52 8.24304C113.595 8.21298 113.675 8.19847 113.756 8.20036Z" fill="#00579F"/>
<path d="M118.414 8.20099C118.495 8.19932 118.576 8.21399 118.651 8.24415C118.726 8.27431 118.794 8.31934 118.851 8.3765C118.908 8.43366 118.953 8.50179 118.983 8.57679C119.013 8.65178 119.028 8.73211 119.026 8.81293V21.7707C119.026 21.9332 118.962 22.0891 118.847 22.204C118.732 22.3189 118.576 22.3835 118.414 22.3835C118.251 22.3835 118.095 22.3189 117.98 22.204C117.866 22.0891 117.801 21.9332 117.801 21.7707V8.81293C117.799 8.73197 117.814 8.6515 117.844 8.57639C117.875 8.50128 117.92 8.43308 117.977 8.3759C118.034 8.31872 118.103 8.27374 118.178 8.24368C118.253 8.21362 118.334 8.1991 118.414 8.20099ZM126.853 8.81293C126.855 8.89375 126.84 8.97407 126.81 9.04907C126.78 9.12407 126.735 9.1922 126.678 9.24936C126.621 9.30652 126.553 9.35152 126.478 9.38168C126.403 9.41184 126.322 9.42653 126.241 9.42486H120.152C119.99 9.42486 119.834 9.36031 119.719 9.24539C119.604 9.13048 119.54 8.97462 119.54 8.81211C119.54 8.64959 119.604 8.49373 119.719 8.37882C119.834 8.2639 119.99 8.19935 120.152 8.19935H126.241C126.322 8.19767 126.403 8.21242 126.478 8.24268C126.553 8.27294 126.621 8.31809 126.679 8.37543C126.736 8.43276 126.781 8.5011 126.811 8.57629C126.841 8.65148 126.855 8.73197 126.853 8.81293ZM119.54 14.8049C119.539 14.7241 119.553 14.6437 119.584 14.5687C119.614 14.4937 119.659 14.4256 119.716 14.3685C119.773 14.3113 119.841 14.2663 119.916 14.2361C119.991 14.206 120.071 14.1913 120.152 14.1929H125.046C125.209 14.1929 125.365 14.2575 125.479 14.3724C125.594 14.4873 125.659 14.6432 125.659 14.8057C125.659 14.9682 125.594 15.1241 125.479 15.239C125.365 15.3539 125.209 15.4185 125.046 15.4185H120.152C120.072 15.419 119.992 15.4035 119.917 15.3728C119.842 15.3422 119.775 15.297 119.718 15.2399C119.661 15.1828 119.616 15.1149 119.585 15.0402C119.555 14.9655 119.54 14.8855 119.54 14.8049Z" fill="#00579F"/>
<path d="M130.092 21.7698C130.09 21.6889 130.105 21.6086 130.135 21.5336C130.165 21.4586 130.21 21.3905 130.267 21.3333C130.325 21.2762 130.393 21.2311 130.468 21.201C130.543 21.1708 130.623 21.1561 130.704 21.1578H137.183C137.345 21.1578 137.501 21.2224 137.616 21.3373C137.731 21.4522 137.796 21.608 137.796 21.7706C137.796 21.9331 137.731 22.0889 137.616 22.2038C137.501 22.3188 137.345 22.3833 137.183 22.3833H130.704C130.623 22.3839 130.543 22.3683 130.469 22.3377C130.394 22.307 130.326 22.2618 130.269 22.2047C130.212 22.1476 130.167 22.0798 130.137 22.0051C130.107 21.9304 130.091 21.8504 130.092 21.7698ZM137.766 8.81195C137.768 8.89277 137.753 8.9731 137.723 9.04809C137.693 9.12309 137.648 9.19122 137.591 9.24838C137.533 9.30554 137.465 9.35054 137.39 9.3807C137.315 9.41087 137.235 9.42556 137.154 9.42389H130.731C130.568 9.42389 130.412 9.35933 130.298 9.24442C130.183 9.1295 130.118 8.97364 130.118 8.81113C130.118 8.64862 130.183 8.49275 130.298 8.37784C130.412 8.26293 130.568 8.19837 130.731 8.19837H137.154C137.235 8.19669 137.316 8.21147 137.391 8.24178C137.466 8.27209 137.534 8.31732 137.592 8.37475C137.649 8.43217 137.694 8.5006 137.724 8.57588C137.754 8.65117 137.768 8.73175 137.766 8.81277V8.81195ZM130.134 14.8039C130.132 14.7231 130.147 14.6428 130.177 14.5678C130.207 14.4928 130.252 14.4247 130.309 14.3675C130.366 14.3103 130.434 14.2653 130.509 14.2351C130.584 14.205 130.665 14.1903 130.746 14.192H135.974C136.137 14.192 136.293 14.2565 136.408 14.3714C136.523 14.4863 136.587 14.6422 136.587 14.8047C136.587 14.9672 136.523 15.1231 136.408 15.238C136.293 15.3529 136.137 15.4175 135.974 15.4175H130.746C130.665 15.418 130.585 15.4025 130.511 15.3719C130.436 15.3413 130.368 15.2962 130.311 15.2392C130.254 15.1822 130.209 15.1144 130.179 15.0398C130.148 14.9652 130.133 14.8845 130.134 14.8039Z" fill="#00579F"/>
<defs>
<linearGradient id="paint0_linear_24_643" x1="19.2479" y1="21.6783" x2="6.56284" y2="5.20975" gradientUnits="userSpaceOnUse">
<stop stop-color="#000B31"/>
<stop offset="0.344" stop-color="#2375B1"/>
<stop offset="0.957" stop-color="#0CAFDE"/>
<stop offset="1" stop-color="#1B75BB"/>
</linearGradient>
<linearGradient id="paint1_linear_24_643" x1="22.0967" y1="14.8027" x2="5.05926" y2="35.8302" gradientUnits="userSpaceOnUse">
<stop stop-color="#F3B51B"/>
<stop offset="0.118" stop-color="#E19C1C"/>
<stop offset="0.296" stop-color="#F3B51B"/>
</linearGradient>
<linearGradient id="paint2_linear_24_643" x1="-0.626319" y1="10.5148" x2="11.41" y2="-1.50324" gradientUnits="userSpaceOnUse">
<stop stop-color="#00579F"/>
<stop offset="1" stop-color="#39D4FF"/>
</linearGradient>
</defs>
</svg>
