<svg width="24" height="32" viewBox="0 0 24 32" fill="none" xmlns="http://www.w3.org/2000/svg">
<path fill-rule="evenodd" clip-rule="evenodd" d="M15.2321 15.4571C15.2868 15.4875 15.3446 15.512 15.4043 15.5303C18.5251 17.259 16.855 19.7789 14.5985 21.2588L14.5693 21.2734H14.5546C15.8288 17.9477 4.41652 17.1126 2.48291 13.9927C2.49755 14.022 2.51218 14.0366 2.52681 14.0659C2.46827 12.7177 3.2741 11.6045 4.62142 10.667C2.18935 13.8902 11.4226 13.9049 15.2279 15.458" fill="url(#paint0_linear_24_1223)"/>
<path fill-rule="evenodd" clip-rule="evenodd" d="M15.3974 15.5332C22.3122 17.54 24.9931 23.1368 17.0236 25.5981C11.3416 27.3415 2.16859 26.5796 1.50913 31.9999C-1.53764 27.6953 2.84269 25.5835 8.18981 23.767C15.9837 22.0529 19.4996 17.8034 15.3974 15.5332Z" fill="url(#paint1_linear_24_1223)"/>
<path fill-rule="evenodd" clip-rule="evenodd" d="M19.3976 0.00344176C25.5359 -0.0258293 24.4081 5.65877 19.7781 6.24419C13.8301 7.28417 2.28611 9.15924 2.52028 14.0785C-2.84148 7.10511 13.8155 0.217811 19.3942 0" fill="url(#paint2_linear_24_1223)"/>
<defs>
<linearGradient id="paint0_linear_24_1223" x1="20.5733" y1="22.8432" x2="7.20654" y2="5.48969" gradientUnits="userSpaceOnUse">
<stop stop-color="#000B31"/>
<stop offset="0.344" stop-color="#2375B1"/>
<stop offset="0.957" stop-color="#0CAFDE"/>
<stop offset="1" stop-color="#1B75BB"/>
</linearGradient>
<linearGradient id="paint1_linear_24_1223" x1="23.5758" y1="15.5991" x2="5.62288" y2="37.7565" gradientUnits="userSpaceOnUse">
<stop stop-color="#F3B51B"/>
<stop offset="0.118" stop-color="#E19C1C"/>
<stop offset="0.296" stop-color="#F3B51B"/>
</linearGradient>
<linearGradient id="paint2_linear_24_1223" x1="-0.368058" y1="11.0798" x2="12.315" y2="-1.58402" gradientUnits="userSpaceOnUse">
<stop stop-color="#00579F"/>
<stop offset="1" stop-color="#39D4FF"/>
</linearGradient>
</defs>
</svg>
