<svg width="24" height="24" viewBox="0 0 24 24" fill="none" xmlns="http://www.w3.org/2000/svg">
<path fill-rule="evenodd" clip-rule="evenodd" d="M9.96644 2.25H14.0336C15.4053 2.25 16.4807 2.24999 17.3451 2.32061C18.2252 2.39252 18.9523 2.54138 19.6104 2.87671C20.6924 3.42798 21.572 4.30762 22.1233 5.38955C22.4586 6.04769 22.6075 6.77479 22.6794 7.65494C22.75 8.51928 22.75 9.59471 22.75 10.9664V13.0336C22.75 14.4053 22.75 15.4807 22.6794 16.3451C22.6075 17.2252 22.4586 17.9523 22.1233 18.6104C21.572 19.6924 20.6924 20.572 19.6104 21.1233C18.9523 21.4586 18.2252 21.6075 17.3451 21.6794C16.4807 21.75 15.4053 21.75 14.0336 21.75H9.96642C8.59471 21.75 7.51928 21.75 6.65494 21.6794C5.77479 21.6075 5.04769 21.4586 4.38955 21.1233C3.30762 20.572 2.42798 19.6924 1.87671 18.6104C1.54138 17.9523 1.39252 17.2252 1.32061 16.3451C1.24999 15.4807 1.25 14.4053 1.25 13.0336V10.9664C1.25 9.59472 1.24999 8.51929 1.32061 7.65494C1.39252 6.77479 1.54138 6.04769 1.87671 5.38955C2.42798 4.30762 3.30762 3.42798 4.38955 2.87671C5.04769 2.54138 5.77479 2.39252 6.65494 2.32061C7.51929 2.24999 8.59472 2.25 9.96644 2.25ZM6.77708 3.81563C5.9897 3.87996 5.48197 4.00359 5.07054 4.21322C4.27085 4.62068 3.62068 5.27085 3.21322 6.07054C3.00359 6.48197 2.87996 6.9897 2.81563 7.77708C2.75058 8.57322 2.75 9.58749 2.75 11V13C2.75 14.4125 2.75058 15.4268 2.81563 16.2229C2.87996 17.0103 3.00359 17.518 3.21322 17.9295C3.62068 18.7291 4.27085 19.3793 5.07054 19.7868C5.48197 19.9964 5.9897 20.12 6.77708 20.1844C7.57322 20.2494 8.58749 20.25 10 20.25H14C15.4125 20.25 16.4268 20.2494 17.2229 20.1844C18.0103 20.12 18.518 19.9964 18.9295 19.7868C19.7291 19.3793 20.3793 18.7291 20.7868 17.9295C20.9964 17.518 21.12 17.0103 21.1844 16.2229C21.2494 15.4268 21.25 14.4125 21.25 13V11C21.25 9.58749 21.2494 8.57322 21.1844 7.77708C21.12 6.9897 20.9964 6.48197 20.7868 6.07054C20.3793 5.27085 19.7291 4.62068 18.9295 4.21322C18.518 4.00359 18.0103 3.87996 17.2229 3.81563C16.4268 3.75058 15.4125 3.75 14 3.75H10C8.58749 3.75 7.57322 3.75058 6.77708 3.81563ZM5.37596 7.58397C5.60573 7.23933 6.07138 7.1462 6.41603 7.37596L7.97842 8.41756C9.63123 9.51943 10.3041 9.95468 11.0096 10.1237C11.6606 10.2798 12.3394 10.2798 12.9904 10.1237C13.6959 9.95468 14.3688 9.51943 16.0216 8.41756L17.584 7.37596C17.9286 7.1462 18.3943 7.23933 18.624 7.58397C18.8538 7.92862 18.7607 8.39427 18.416 8.62404L16.8536 9.66564C16.8086 9.69568 16.764 9.72538 16.72 9.75474C15.2448 10.7386 14.3382 11.3432 13.34 11.5824C12.4591 11.7935 11.5409 11.7935 10.66 11.5824C9.66183 11.3432 8.75518 10.7386 7.27999 9.75474C7.23596 9.72537 7.19143 9.69567 7.14637 9.66564L5.58397 8.62404C5.23933 8.39427 5.1462 7.92862 5.37596 7.58397Z" fill="#4D637C"/>
</svg>
