<svg width="20" height="20" viewBox="0 0 20 20" fill="none" xmlns="http://www.w3.org/2000/svg">
<path fill-rule="evenodd" clip-rule="evenodd" d="M10.9442 1.92216C10.3262 1.75121 9.67348 1.75121 9.05553 1.92216C8.73602 2.01055 8.40891 2.17514 7.96405 2.48048C7.5127 2.79029 6.9759 3.21923 6.22565 3.81943L4.55899 5.15276C3.61303 5.90952 3.23513 6.21859 2.96567 6.5903C2.71666 6.93381 2.5314 7.31928 2.41872 7.72831C2.29678 8.17093 2.29152 8.65909 2.29152 9.87051V11.6663C2.29152 12.8434 2.29201 13.6887 2.34621 14.3521C2.39982 15.0083 2.50284 15.4314 2.67754 15.7742C3.01709 16.4406 3.5589 16.9824 4.2253 17.322C4.56816 17.4967 4.99127 17.5997 5.64742 17.6533C5.99832 17.682 6.40006 17.6956 6.87485 17.7021V12.4786C6.87485 12.1082 6.87484 11.799 6.89216 11.5452C6.91019 11.281 6.94906 11.0314 7.0493 10.7894C7.28189 10.2278 7.72802 9.78171 8.28954 9.54912C8.53153 9.44888 8.78113 9.41001 9.04538 9.39198C9.29923 9.37466 9.60842 9.37467 9.97881 9.37468H10.0209C10.3913 9.37467 10.7005 9.37466 10.9543 9.39198C11.2186 9.41001 11.4682 9.44888 11.7102 9.54912C12.2717 9.78171 12.7178 10.2278 12.9504 10.7894C13.0506 11.0314 13.0895 11.281 13.1075 11.5452C13.1249 11.799 13.1249 12.1082 13.1249 12.4786V17.7021C13.5997 17.6956 14.0014 17.682 14.3523 17.6533C15.0084 17.5997 15.4315 17.4967 15.7744 17.322C16.4408 16.9824 16.9826 16.4406 17.3222 15.7742C17.4969 15.4314 17.5999 15.0083 17.6535 14.3521C17.7077 13.6887 17.7082 12.8434 17.7082 11.6663V9.87051C17.7082 8.65909 17.7029 8.17093 17.581 7.72831C17.4683 7.31928 17.283 6.93381 17.034 6.5903C16.7646 6.21859 16.3867 5.90952 15.4407 5.15276L13.7741 3.81943C13.0238 3.21923 12.487 2.79029 12.0357 2.48048C11.5908 2.17514 11.2637 2.01055 10.9442 1.92216ZM12.536 18.957C13.291 18.954 13.9208 18.9427 14.4541 18.8992C15.1875 18.8392 15.7934 18.7152 16.3419 18.4357C17.2435 17.9764 17.9765 17.2433 18.4359 16.3417C18.7154 15.7933 18.8394 15.1873 18.8993 14.4539C18.9582 13.7336 18.9582 12.8374 18.9582 11.6943V9.87051C18.9582 9.83817 18.9582 9.80619 18.9582 9.77457C18.9583 8.68964 18.9584 8.02187 18.7861 7.39632C18.6336 6.84292 18.383 6.32142 18.0461 5.85666C17.6653 5.33132 17.1438 4.91424 16.2965 4.23659C16.2718 4.21684 16.2468 4.19687 16.2216 4.17667L14.5358 2.82807C13.8088 2.24647 13.2366 1.78866 12.743 1.4499C12.2387 1.10371 11.7821 0.857025 11.2775 0.717411C10.4414 0.486124 9.55828 0.486124 8.72224 0.717411C8.21758 0.857025 7.76102 1.10371 7.25666 1.4499C6.76312 1.78866 6.19088 2.24646 5.46388 2.82806L3.77812 4.17667C3.75287 4.19687 3.7279 4.21685 3.7032 4.2366C2.85592 4.91424 2.33443 5.33132 1.95361 5.85666C1.61671 6.32142 1.36606 6.84292 1.21361 7.39632C1.04128 8.02187 1.04137 8.68964 1.04151 9.77457C1.04152 9.80619 1.04152 9.83817 1.04152 9.87051L1.04152 11.6943C1.04152 12.8374 1.04151 13.7336 1.10036 14.4539C1.16029 15.1873 1.28434 15.7933 1.56378 16.3417C2.02317 17.2433 2.75621 17.9764 3.65782 18.4357C4.20626 18.7152 4.81218 18.8392 5.54563 18.8992C6.07896 18.9427 6.70871 18.954 7.46373 18.957C7.47568 18.9577 7.48773 18.958 7.49985 18.958C7.51046 18.958 7.52101 18.9577 7.53148 18.9572C7.77609 18.958 8.03368 18.958 8.3052 18.958H11.6945C11.966 18.958 12.2236 18.958 12.4682 18.9572C12.4787 18.9577 12.4892 18.958 12.4999 18.958C12.512 18.958 12.524 18.9577 12.536 18.957ZM11.8749 17.708V12.4997C11.8749 12.1028 11.8745 11.8365 11.8604 11.6303C11.8468 11.4297 11.8222 11.332 11.7956 11.2677C11.6898 11.0125 11.4871 10.8097 11.2318 10.704C11.1675 10.6773 11.0698 10.6528 10.8692 10.6391C10.663 10.625 10.3967 10.6247 9.99985 10.6247C9.60302 10.6247 9.33669 10.625 9.13047 10.6391C8.92987 10.6528 8.83219 10.6773 8.76789 10.704C8.51265 10.8097 8.30987 11.0125 8.20415 11.2677C8.17751 11.332 8.15295 11.4297 8.13926 11.6303C8.12519 11.8365 8.12485 12.1028 8.12485 12.4997V17.708C8.19313 17.708 8.26256 17.708 8.33319 17.708H11.6665C11.7371 17.708 11.8066 17.708 11.8749 17.708Z" fill="#4D637C"/>
</svg>
