<svg width="24" height="24" viewBox="0 0 24 24" fill="none" xmlns="http://www.w3.org/2000/svg">
<path fill-rule="evenodd" clip-rule="evenodd" d="M9.367 2.25H14.633C15.7251 2.24999 16.5906 2.24999 17.2883 2.30699C18.0017 2.36527 18.6053 2.48688 19.1565 2.76772C20.0502 3.22312 20.7769 3.94978 21.2323 4.84355C21.5131 5.39472 21.6347 5.99834 21.693 6.71173C21.75 7.40935 21.75 8.27484 21.75 9.36698V16.25H22.5556C23.2152 16.25 23.75 16.7848 23.75 17.4444C23.75 19.8223 21.8223 21.75 19.4444 21.75H4.55556C2.17766 21.75 0.25 19.8223 0.25 17.4444C0.25 16.7848 0.784771 16.25 1.44444 16.25H2.25V9.367C2.24999 8.27486 2.24999 7.40936 2.30699 6.71173C2.36527 5.99835 2.48688 5.39472 2.76772 4.84355C3.22312 3.94978 3.94978 3.22312 4.84354 2.76772C5.39472 2.48688 5.99834 2.36527 6.71173 2.30699C7.40936 2.24999 8.27485 2.24999 9.367 2.25ZM1.76645 17.75C1.9187 19.1557 3.10934 20.25 4.55556 20.25H19.4444C20.8907 20.25 22.0813 19.1557 22.2336 17.75H1.76645ZM20.25 16.25H3.75V9.4C3.75 8.26752 3.75058 7.46326 3.80201 6.83388C3.85271 6.21325 3.94909 5.829 4.10423 5.52453C4.41582 4.913 4.913 4.41582 5.52453 4.10423C5.829 3.94909 6.21325 3.85271 6.83388 3.80201C7.46326 3.75058 8.26752 3.75 9.4 3.75H14.6C15.7325 3.75 16.5367 3.75058 17.1661 3.80201C17.7867 3.85271 18.171 3.94909 18.4755 4.10423C19.087 4.41582 19.5842 4.913 19.8958 5.52453C20.0509 5.829 20.1473 6.21325 20.198 6.83388C20.2494 7.46326 20.25 8.26752 20.25 9.4V16.25Z" fill="#4D637C"/>
</svg>
