<svg width="23" height="24" viewBox="0 0 23 24" fill="none" xmlns="http://www.w3.org/2000/svg">
<path fill-rule="evenodd" clip-rule="evenodd" d="M12.4585 2.75C16.825 2.75 20.3647 6.44365 20.3647 11C20.3647 15.5563 16.825 19.25 12.4585 19.25C10.275 19.25 8.29947 18.3274 6.86793 16.8336C5.4364 15.3399 4.55225 13.2784 4.55225 11C4.55225 6.44365 8.09199 2.75 12.4585 2.75ZM21.8022 11C21.8022 5.61522 17.6189 1.25 12.4585 1.25C7.29809 1.25 3.11475 5.61522 3.11475 11C3.11475 13.4221 3.96193 15.639 5.36271 17.3436L2.36693 20.4697C2.08624 20.7626 2.08624 21.2374 2.36693 21.5303C2.64762 21.8232 3.10271 21.8232 3.3834 21.5303L6.37917 18.4043C8.01283 19.866 10.1373 20.75 12.4585 20.75C17.6189 20.75 21.8022 16.3848 21.8022 11Z" fill="#4D637C"/>
</svg>
