<svg width="25" height="24" viewBox="0 0 25 24" fill="none" xmlns="http://www.w3.org/2000/svg">
<path fill-rule="evenodd" clip-rule="evenodd" d="M16.6018 2.83982C16.2479 2.75484 15.8631 2.75002 14.849 2.75002H8.9C7.76752 2.75002 6.96326 2.7506 6.33388 2.80203C5.71325 2.85273 5.329 2.94911 5.02453 3.10425C4.413 3.41584 3.91582 3.91303 3.60423 4.52455C3.44909 4.82902 3.35271 5.21328 3.30201 5.8339C3.25058 6.46329 3.25 7.26754 3.25 8.40002V15.6C3.25 16.7325 3.25058 17.5368 3.30201 18.1661C3.35271 18.7868 3.44909 19.171 3.60423 19.4755C3.91582 20.087 4.413 20.5842 5.02453 20.8958C5.329 21.0509 5.71325 21.1473 6.33388 21.198C6.72578 21.23 7.18548 21.2423 7.75 21.2471V16.1696C7.74999 15.6354 7.74998 15.1896 7.77974 14.8254C7.81078 14.4455 7.87789 14.0888 8.04973 13.7515C8.31338 13.2341 8.73408 12.8134 9.25153 12.5498C9.58879 12.3779 9.94545 12.3108 10.3253 12.2798C10.6896 12.25 11.1354 12.25 11.6695 12.25H13.3305C13.8646 12.25 14.3104 12.25 14.6747 12.2798C15.0546 12.3108 15.4112 12.3779 15.7485 12.5498C16.2659 12.8134 16.6866 13.2341 16.9503 13.7515C17.1221 14.0888 17.1892 14.4455 17.2203 14.8254C17.25 15.1896 17.25 15.6354 17.25 16.1696V21.2471C17.8145 21.2423 18.2742 21.23 18.6661 21.198C19.2867 21.1473 19.671 21.0509 19.9755 20.8958C20.587 20.5842 21.0842 20.087 21.3958 19.4755C21.5509 19.171 21.6473 18.7868 21.698 18.1661C21.7494 17.5368 21.75 16.7325 21.75 15.6V9.65099C21.75 8.63693 21.7452 8.25214 21.6602 7.89818C21.5806 7.56656 21.4493 7.24954 21.2711 6.95876C21.0809 6.64838 20.8122 6.37288 20.0952 5.65584L18.8442 4.40487C18.1271 3.68782 17.8516 3.41914 17.5413 3.22894C17.2505 3.05075 16.9335 2.91943 16.6018 2.83982ZM15.75 21.25V16.2C15.75 15.6276 15.7494 15.2434 15.7252 14.9475C15.7018 14.6604 15.6599 14.5231 15.6138 14.4325C15.4939 14.1973 15.3027 14.0061 15.0675 13.8863C14.9769 13.8401 14.8396 13.7982 14.5525 13.7748C14.2566 13.7506 13.8724 13.75 13.3 13.75H11.7C11.1276 13.75 10.7434 13.7506 10.4475 13.7748C10.1604 13.7982 10.0231 13.8401 9.93251 13.8863C9.69731 14.0061 9.50608 14.1973 9.38624 14.4325C9.3401 14.5231 9.29822 14.6604 9.27476 14.9475C9.25058 15.2434 9.25 15.6276 9.25 16.2V21.25H15.75ZM14.9426 1.25001C15.8314 1.24986 16.4042 1.24976 16.952 1.38126C17.4367 1.49762 17.9 1.68954 18.325 1.94998C18.8053 2.24432 19.2103 2.64945 19.8387 3.27808C19.8605 3.29985 19.8825 3.32189 19.9048 3.34421L21.1558 4.59518C21.1781 4.6175 21.2002 4.63954 21.222 4.66131C21.8506 5.28971 22.2557 5.69469 22.55 6.17501C22.8105 6.6 23.0024 7.06334 23.1188 7.54801C23.2503 8.09578 23.2502 8.6686 23.25 9.55746C23.25 9.58825 23.25 9.61942 23.25 9.65099V15.633C23.25 16.7252 23.25 17.5907 23.193 18.2883C23.1347 19.0017 23.0131 19.6053 22.7323 20.1565C22.2769 21.0502 21.5502 21.7769 20.6565 22.2323C20.1053 22.5131 19.5017 22.6347 18.7883 22.693C18.0906 22.75 17.2252 22.75 16.133 22.75H8.86698C7.77484 22.75 6.90935 22.75 6.21173 22.693C5.49834 22.6347 4.89472 22.5131 4.34355 22.2323C3.44978 21.7769 2.72312 21.0502 2.26772 20.1565C1.98688 19.6053 1.86527 19.0017 1.80699 18.2883C1.74999 17.5907 1.74999 16.7252 1.75 15.633V8.36702C1.74999 7.27488 1.74999 6.40938 1.80699 5.71175C1.86527 4.99837 1.98688 4.39474 2.26772 3.84357C2.72312 2.9498 3.44978 2.22314 4.34355 1.76774C4.89472 1.4869 5.49835 1.36529 6.21173 1.30701C6.90936 1.25001 7.77486 1.25002 8.867 1.25002L14.849 1.25002C14.8806 1.25002 14.9118 1.25002 14.9426 1.25001ZM7.75 8.00002C7.75 7.58581 8.08579 7.25002 8.5 7.25002H16.5C16.9142 7.25002 17.25 7.58581 17.25 8.00002C17.25 8.41423 16.9142 8.75002 16.5 8.75002H8.5C8.08579 8.75002 7.75 8.41423 7.75 8.00002Z" fill="#F0F8FF"/>
</svg>
