<svg width="25" height="24" viewBox="0 0 25 24" fill="none" xmlns="http://www.w3.org/2000/svg">
<path fill-rule="evenodd" clip-rule="evenodd" d="M5.41524 7.58273C3.89346 9.16305 3.25 10.985 3.25 12C3.25 13.015 3.89346 14.837 5.41524 16.4173C6.9072 17.9666 9.21554 19.25 12.5 19.25C15.7845 19.25 18.0928 17.9666 19.5848 16.4173C21.1065 14.837 21.75 13.015 21.75 12C21.75 10.985 21.1065 9.16305 19.5848 7.58273C18.0928 6.03338 15.7845 4.75 12.5 4.75C9.21554 4.75 6.9072 6.03338 5.41524 7.58273ZM4.33476 6.54227C6.0928 4.71662 8.78446 3.25 12.5 3.25C16.2155 3.25 18.9072 4.71662 20.6652 6.54227C22.3935 8.33695 23.25 10.515 23.25 12C23.25 13.485 22.3935 15.663 20.6652 17.4577C18.9072 19.2834 16.2155 20.75 12.5 20.75C8.78446 20.75 6.0928 19.2834 4.33476 17.4577C2.60654 15.663 1.75 13.485 1.75 12C1.75 10.515 2.60654 8.33695 4.33476 6.54227ZM12.5 9.75C11.2574 9.75 10.25 10.7574 10.25 12C10.25 13.2426 11.2574 14.25 12.5 14.25C13.7426 14.25 14.75 13.2426 14.75 12C14.75 10.7574 13.7426 9.75 12.5 9.75ZM8.75 12C8.75 9.92893 10.4289 8.25 12.5 8.25C14.5711 8.25 16.25 9.92893 16.25 12C16.25 14.0711 14.5711 15.75 12.5 15.75C10.4289 15.75 8.75 14.0711 8.75 12Z" fill="#4D637C"/>
</svg>
