<svg width="25" height="24" viewBox="0 0 25 24" fill="none" xmlns="http://www.w3.org/2000/svg">
<path fill-rule="evenodd" clip-rule="evenodd" d="M12.0661 1.25H12.9339C14.5854 1.25 15.8708 1.24999 16.9019 1.33424C17.9488 1.41977 18.7994 1.59588 19.5644 1.98571C20.8345 2.63285 21.8671 3.66547 22.5143 4.93556C22.9041 5.70065 23.0802 6.55124 23.1658 7.59814C23.25 8.62922 23.25 9.91461 23.25 11.566V12.434C23.25 14.0854 23.25 15.3708 23.1658 16.4019C23.0802 17.4488 22.9041 18.2994 22.5143 19.0644C21.8671 20.3345 20.8345 21.3671 19.5644 22.0143C18.7994 22.4041 17.9488 22.5802 16.9019 22.6658C15.8708 22.75 14.5854 22.75 12.934 22.75H12.066C10.4146 22.75 9.12922 22.75 8.09814 22.6658C7.05124 22.5802 6.20065 22.4041 5.43556 22.0143C4.16547 21.3671 3.13285 20.3345 2.48571 19.0644C2.09588 18.2994 1.91977 17.4488 1.83424 16.4019C1.74999 15.3708 1.75 14.0854 1.75 12.4339V11.5661C1.75 9.91462 1.74999 8.62922 1.83424 7.59814C1.91977 6.55124 2.09588 5.70065 2.48571 4.93556C3.13285 3.66547 4.16547 2.63285 5.43556 1.98571C6.20065 1.59588 7.05124 1.41977 8.09814 1.33424C9.12922 1.24999 10.4146 1.25 12.0661 1.25ZM8.22029 2.82925C7.26615 2.90721 6.63493 3.05809 6.11655 3.32222C5.1287 3.82555 4.32555 4.6287 3.82222 5.61655C3.55809 6.13493 3.40721 6.76615 3.32925 7.72029C3.25058 8.68317 3.25 9.90747 3.25 11.6V12.4C3.25 14.0925 3.25058 15.3168 3.32925 16.2797C3.35156 16.5527 3.37983 16.7993 3.41502 17.0243L6.76145 13.6779C7.13405 13.3053 7.44526 12.9941 7.72044 12.7602C8.00762 12.5162 8.30365 12.3134 8.65936 12.1961C9.20561 12.0159 9.7946 12.0116 10.3434 12.1836C10.7008 12.2957 10.9998 12.4941 11.2906 12.7338C11.5692 12.9636 11.885 13.2702 12.263 13.6372L14.9783 16.2735L15.5405 15.7114C15.9183 15.3335 16.2337 15.0181 16.5124 14.7815C16.803 14.5348 17.1027 14.33 17.4627 14.213C18.015 14.0336 18.61 14.0336 19.1623 14.213C19.5223 14.33 19.8219 14.5347 20.1125 14.7814C20.3911 15.0179 20.7064 15.3332 21.0841 15.7109L21.6694 16.2962C21.6698 16.2907 21.6703 16.2852 21.6707 16.2797C21.7494 15.3168 21.75 14.0925 21.75 12.4V11.6C21.75 9.90747 21.7494 8.68317 21.6707 7.72029C21.5928 6.76615 21.4419 6.13493 21.1778 5.61655C20.6744 4.6287 19.8713 3.82555 18.8834 3.32222C18.3651 3.05809 17.7338 2.90721 16.7797 2.82925C15.8168 2.75058 14.5925 2.75 12.9 2.75H12.1C10.4075 2.75 9.18317 2.75058 8.22029 2.82925ZM21.3191 18.0673L20.0449 16.7931C19.6402 16.3883 19.3681 16.117 19.1417 15.9249C18.9221 15.7385 18.7954 15.671 18.6988 15.6396C18.4477 15.558 18.1773 15.558 17.9262 15.6396C17.8296 15.671 17.7029 15.7385 17.4832 15.925C17.2567 16.1172 16.9845 16.3886 16.5796 16.7936L16.0468 17.3264L19.2143 20.4939C20.0507 19.9887 20.7319 19.2586 21.1778 18.3834C21.2291 18.2828 21.2761 18.1779 21.3191 18.0673ZM17.6613 21.0622L14.4597 17.8606L11.2398 14.7345C10.8345 14.341 10.5623 14.0775 10.3363 13.8911C10.1171 13.7104 9.99099 13.6451 9.8947 13.6149C9.64522 13.5367 9.3775 13.5387 9.1292 13.6206C9.03336 13.6522 8.90824 13.7193 8.69177 13.9032C8.46853 14.0929 8.20022 14.3604 7.80077 14.7599L4.03033 18.5303C4.00253 18.5581 3.9731 18.5833 3.94234 18.6058C4.44891 19.4919 5.2039 20.2128 6.11655 20.6778C6.63493 20.9419 7.26615 21.0928 8.22029 21.1707C9.18317 21.2494 10.4075 21.25 12.1 21.25H12.9C14.5925 21.25 15.8168 21.2494 16.7797 21.1707C17.1092 21.1438 17.4002 21.1082 17.6613 21.0622ZM16.5 6.75C15.8096 6.75 15.25 7.30964 15.25 8C15.25 8.69036 15.8096 9.25 16.5 9.25C17.1904 9.25 17.75 8.69036 17.75 8C17.75 7.30964 17.1904 6.75 16.5 6.75ZM13.75 8C13.75 6.48122 14.9812 5.25 16.5 5.25C18.0188 5.25 19.25 6.48122 19.25 8C19.25 9.51878 18.0188 10.75 16.5 10.75C14.9812 10.75 13.75 9.51878 13.75 8Z" fill="#627D98"/>
</svg>
