<svg width="24" height="24" viewBox="0 0 24 24" fill="none" xmlns="http://www.w3.org/2000/svg">
<path d="M21.3123 9.43239C20.9326 8.68309 20.3132 8.07365 19.5639 7.68401C19.0843 7.44424 18.5349 7.33434 17.7456 7.28439V6.76487C17.7456 5.95562 17.7456 5.29624 17.7056 4.76673C17.6657 4.21724 17.5658 3.73769 17.336 3.29809C16.9763 2.58875 16.4068 2.01928 15.6975 1.65962C15.2579 1.42983 14.7783 1.33992 14.2289 1.28996C13.6994 1.25 13.04 1.25 12.2307 1.25H11.7711C10.9619 1.25 10.3025 1.25 9.773 1.28996C9.22351 1.32993 8.74396 1.42983 8.30437 1.65962C7.59503 2.01928 7.02556 2.58875 6.66589 3.29809C6.43611 3.73769 6.34619 4.21724 6.29624 4.76673C6.25627 5.29624 6.25627 5.95562 6.25627 6.76487V7.28439C5.477 7.33434 4.91752 7.44424 4.43796 7.68401C3.68866 8.06366 3.07923 8.68309 2.68959 9.43239C2.25 10.2916 2.25 11.4105 2.25 13.6485V16.346C2.25 18.5839 2.25 19.7028 2.68959 20.562C3.06924 21.3113 3.68866 21.9208 4.43796 22.3104C5.29717 22.75 6.41612 22.75 8.65404 22.75H15.3478C17.5857 22.75 18.7047 22.75 19.5639 22.3104C20.3132 21.9308 20.9226 21.3113 21.3123 20.562C21.7519 19.7028 21.7519 18.5839 21.7519 16.346V13.6485C21.7519 11.4105 21.7519 10.2916 21.3123 9.43239ZM12.7602 15.9963C12.7602 16.4059 12.4205 16.7456 12.0109 16.7456C11.6013 16.7456 11.2616 16.4059 11.2616 15.9963V13.9981C11.2616 13.5885 11.6013 13.2488 12.0109 13.2488C12.4205 13.2488 12.7602 13.5885 12.7602 13.9981V15.9963ZM16.257 7.25441C15.9772 7.25441 15.6775 7.25441 15.3578 7.25441H8.66403C8.34433 7.25441 8.04461 7.25441 7.76487 7.25441V6.80483C7.76487 5.95562 7.76487 5.35618 7.80483 4.89661C7.8448 4.44703 7.91473 4.18727 8.01464 3.98745C8.23443 3.56784 8.57412 3.21817 8.99373 3.00836C9.19354 2.90846 9.4533 2.83852 9.90288 2.79856C10.3625 2.7586 10.9619 2.7586 11.8111 2.7586H12.2107C13.0599 2.7586 13.6594 2.7586 14.119 2.79856C14.5685 2.83852 14.8283 2.90846 15.0281 3.00836C15.4477 3.22816 15.7974 3.56784 16.0072 3.98745C16.1071 4.18727 16.177 4.44703 16.217 4.89661C16.257 5.35618 16.257 5.95562 16.257 6.80483V7.25441Z" fill="#4D647C"/>
</svg>
