<svg width="23" height="24" viewBox="0 0 23 24" fill="none" xmlns="http://www.w3.org/2000/svg">
<path fill-rule="evenodd" clip-rule="evenodd" d="M11.7224 1.25L8.625 1.25C7.1695 1.25 5.98958 2.48122 5.98958 4L5.98958 4.5C5.98958 4.91421 6.31138 5.25 6.70833 5.25C7.10529 5.25 7.42708 4.91421 7.42708 4.5L7.42708 4C7.42708 3.30964 7.96341 2.75 8.625 2.75L11.6917 2.75C12.5086 2.75 13.0781 2.75058 13.5214 2.78838C13.9564 2.82547 14.2063 2.8946 14.3956 2.99524C14.8013 3.21095 15.1312 3.55516 15.3379 3.97852C15.4343 4.17604 15.5006 4.4368 15.5361 4.89068C15.5724 5.35331 15.5729 5.94755 15.5729 6.8V7.2597C15.1167 7.24999 14.6033 7.25 14.0233 7.25L8.97672 7.25C7.93007 7.24999 7.10063 7.24999 6.43208 7.30699C5.74841 7.36527 5.16994 7.48688 4.64173 7.76772C3.7852 8.22312 3.08882 8.94978 2.6524 9.84354C2.38326 10.3947 2.26672 10.9983 2.21086 11.7117C2.15624 12.4094 2.15624 13.2748 2.15625 14.367V15.633C2.15624 16.7252 2.15624 17.5906 2.21086 18.2883C2.26672 19.0017 2.38326 19.6053 2.6524 20.1565C3.08882 21.0502 3.7852 21.7769 4.64173 22.2323C5.16994 22.5131 5.74841 22.6347 6.43208 22.693C7.10063 22.75 7.93006 22.75 8.97669 22.75H14.0233C15.0699 22.75 15.8994 22.75 16.5679 22.693C17.2516 22.6347 17.8301 22.5131 18.3583 22.2323C19.2148 21.7769 19.9112 21.0502 20.3476 20.1565C20.6167 19.6053 20.7333 19.0017 20.7891 18.2883C20.8438 17.5906 20.8438 16.7251 20.8437 15.633V14.367C20.8438 13.2749 20.8438 12.4094 20.7891 11.7117C20.7333 10.9983 20.6167 10.3947 20.3476 9.84354C19.9112 8.94978 19.2148 8.22312 18.3583 7.76772C17.9479 7.54954 17.5072 7.42746 17.0104 7.35652V6.7679C17.0104 5.95506 17.0104 5.29944 16.9689 4.76853C16.9261 4.2219 16.8356 3.74175 16.6187 3.29754C16.2742 2.59193 15.7244 2.01825 15.0482 1.65873C14.6225 1.43239 14.1624 1.33803 13.6385 1.29336C13.1297 1.24999 12.5014 1.24999 11.7224 1.25ZM16.4509 8.80201C17.0456 8.85271 17.4139 8.94909 17.7057 9.10423C18.2917 9.41582 18.7682 9.913 19.0668 10.5245C19.2155 10.829 19.3078 11.2133 19.3564 11.8339C19.4057 12.4633 19.4062 13.2675 19.4062 14.4V15.6C19.4062 16.7325 19.4057 17.5367 19.3564 18.1661C19.3078 18.7867 19.2155 19.171 19.0668 19.4755C18.7682 20.087 18.2917 20.5842 17.7057 20.8958C17.4139 21.0509 17.0456 21.1473 16.4509 21.198C15.8477 21.2494 15.077 21.25 13.9917 21.25H9.00833C7.92304 21.25 7.1523 21.2494 6.54914 21.198C5.95437 21.1473 5.58613 21.0509 5.29434 20.8958C4.7083 20.5842 4.23182 20.087 3.93322 19.4755C3.78455 19.171 3.69218 18.7867 3.64359 18.1661C3.59431 17.5367 3.59375 16.7325 3.59375 15.6V14.4C3.59375 13.2675 3.59431 12.4633 3.64359 11.8339C3.69218 11.2133 3.78455 10.829 3.93322 10.5245C4.23182 9.913 4.7083 9.41582 5.29434 9.10423C5.58613 8.94909 5.95437 8.85271 6.54914 8.80201C7.1523 8.75058 7.92304 8.75 9.00833 8.75L13.9917 8.75C15.077 8.75 15.8477 8.75058 16.4509 8.80201ZM11.5 13.25C11.103 13.25 10.7812 13.5858 10.7812 14V16C10.7812 16.4142 11.103 16.75 11.5 16.75C11.897 16.75 12.2187 16.4142 12.2187 16V14C12.2187 13.5858 11.897 13.25 11.5 13.25Z" fill="#4D637C"/>
</svg>
