<svg width="25" height="25" viewBox="0 0 25 25" fill="none" xmlns="http://www.w3.org/2000/svg">
<path fill-rule="evenodd" clip-rule="evenodd" d="M7.09846 2.50052L14.3735 3.78435C15.2888 3.94586 16.017 4.07436 16.6025 4.22373C17.2034 4.37703 17.7064 4.56434 18.1582 4.86916C18.896 5.36692 19.4791 6.06194 19.8411 6.87501C20.0628 7.37294 20.1598 7.90085 20.2064 8.51926C20.2517 9.12184 20.2517 9.86127 20.2517 10.7906V12.9203C21.0194 12.6372 21.9155 12.804 22.532 13.4206C23.3772 14.2658 23.3772 15.6361 22.532 16.4812L16.032 22.9812C15.1868 23.8264 13.8165 23.8264 12.9714 22.9812C12.2143 22.2242 12.1354 21.0458 12.7345 20.2009H10.8414C9.91205 20.2009 9.17262 20.2009 8.57004 20.1556C7.95163 20.109 7.42372 20.012 6.9258 19.7903C6.11272 19.4284 5.4177 18.8453 4.91994 18.1075C4.61512 17.6556 4.42781 17.1526 4.27451 16.5517C4.12514 15.9662 3.99664 15.238 3.83513 14.3227L2.5513 7.04768C2.42297 6.32057 2.31784 5.72489 2.27709 5.24418C2.23542 4.75267 2.24984 4.28207 2.43634 3.84264C2.71483 3.18645 3.23724 2.66405 3.89342 2.38556C4.33285 2.19906 4.80345 2.18464 5.29496 2.22631C5.77568 2.26706 6.37135 2.37219 7.09846 2.50052ZM14.191 18.7009L18.7517 14.1403V10.8204C18.7517 9.85461 18.7512 9.17154 18.7106 8.63181C18.6707 8.10149 18.5949 7.76379 18.4708 7.48506C18.2231 6.92875 17.8241 6.45321 17.3193 6.11264C17.0664 5.942 16.747 5.80864 16.2317 5.67718C15.7072 5.54339 15.0347 5.4242 14.0836 5.25636L6.87322 3.98394C6.10197 3.84784 5.57334 3.75529 5.16825 3.72094C5.02686 3.70896 4.91285 3.70545 4.81983 3.7079L8.53297 7.42104C8.82586 7.71393 8.82586 8.1888 8.53297 8.4817C8.24007 8.77459 7.7652 8.77459 7.47231 8.4817L3.75871 4.7681C3.75621 4.86129 3.7597 4.9756 3.77173 5.11746C3.80607 5.52255 3.89862 6.05119 4.03473 6.82244L5.30714 14.0328C5.47498 14.9839 5.59417 15.6565 5.72796 16.1809C5.85942 16.6962 5.99278 17.0156 6.16342 17.2685C6.50399 17.7734 6.97953 18.1723 7.53584 18.42C7.81458 18.5441 8.15227 18.6199 8.68259 18.6598C9.22232 18.7004 9.90539 18.7009 10.8712 18.7009H14.191ZM11.5027 10.2009C10.8123 10.2009 10.2527 10.7606 10.2527 11.4509C10.2527 12.1413 10.8123 12.7009 11.5027 12.7009C12.193 12.7009 12.7527 12.1413 12.7527 11.4509C12.7527 10.7606 12.193 10.2009 11.5027 10.2009ZM8.75267 11.4509C8.75267 9.93213 9.98388 8.70091 11.5027 8.70091C13.0214 8.70091 14.2527 9.93213 14.2527 11.4509C14.2527 12.9697 13.0215 14.2009 11.5027 14.2009C9.98388 14.2009 8.75267 12.9697 8.75267 11.4509ZM21.4714 14.4812C21.212 14.2218 20.7914 14.2218 20.532 14.4812L14.032 20.9812C13.7726 21.2406 13.7726 21.6612 14.032 21.9206C14.2914 22.18 14.712 22.18 14.9714 21.9206L21.4714 15.4206C21.7308 15.1612 21.7308 14.7406 21.4714 14.4812Z" fill="#4D637C"/>
</svg>
