<svg width="25" height="24" viewBox="0 0 25 24" fill="none" xmlns="http://www.w3.org/2000/svg">
<path fill-rule="evenodd" clip-rule="evenodd" d="M17.9697 1.46967C18.2626 1.17678 18.7374 1.17678 19.0303 1.46967L23.0303 5.46967C23.3232 5.76256 23.3232 6.23744 23.0303 6.53033L19.0303 10.5303C18.7374 10.8232 18.2626 10.8232 17.9697 10.5303C17.6768 10.2374 17.6768 9.76256 17.9697 9.46967L20.6893 6.75H9.5C6.04822 6.75 3.25 9.54822 3.25 13C3.25 16.4518 6.04822 19.25 9.5 19.25H14.5C14.9142 19.25 15.25 19.5858 15.25 20C15.25 20.4142 14.9142 20.75 14.5 20.75H9.5C5.21979 20.75 1.75 17.2802 1.75 13C1.75 8.71979 5.21979 5.25 9.5 5.25H20.6893L17.9697 2.53033C17.6768 2.23744 17.6768 1.76256 17.9697 1.46967Z" fill="#4D637C"/>
</svg>
