<svg width="25" height="24" viewBox="0 0 25 24" fill="none" xmlns="http://www.w3.org/2000/svg">
<path fill-rule="evenodd" clip-rule="evenodd" d="M7.03033 1.46967C7.32322 1.76256 7.32322 2.23744 7.03033 2.53033L4.31066 5.25H15.5C19.7802 5.25 23.25 8.71979 23.25 13C23.25 17.2802 19.7802 20.75 15.5 20.75H10.5C10.0858 20.75 9.75 20.4142 9.75 20C9.75 19.5858 10.0858 19.25 10.5 19.25H15.5C18.9518 19.25 21.75 16.4518 21.75 13C21.75 9.54822 18.9518 6.75 15.5 6.75H4.31066L7.03033 9.46967C7.32322 9.76256 7.32322 10.2374 7.03033 10.5303C6.73744 10.8232 6.26256 10.8232 5.96967 10.5303L1.96967 6.53033C1.67678 6.23744 1.67678 5.76256 1.96967 5.46967L5.96967 1.46967C6.26256 1.17678 6.73744 1.17678 7.03033 1.46967Z" fill="#4D637C"/>
</svg>
