<svg width="21" height="22" viewBox="0 0 21 22" fill="none" xmlns="http://www.w3.org/2000/svg">
<path fill-rule="evenodd" clip-rule="evenodd" d="M11.8241 0.250105C11.7897 0.250159 11.7549 0.250213 11.7199 0.250213L9.28535 0.250213C9.2503 0.250213 9.21554 0.250159 9.18108 0.250105C8.68984 0.24934 8.25868 0.248668 7.87449 0.406335C7.53856 0.5442 7.24117 0.767864 7.0096 1.05682C6.74477 1.38727 6.60904 1.8143 6.45439 2.30084C6.44354 2.33497 6.4326 2.36939 6.42151 2.4041L6.15123 3.25021L0.91927 3.25021C0.522316 3.25021 0.20052 3.586 0.20052 4.00021C0.20052 4.41443 0.522316 4.75021 0.91927 4.75021L2.15822 4.75021L2.73897 15.0521C2.7972 16.0852 2.84342 16.9051 2.93146 17.5654C3.02162 18.2415 3.16232 18.8115 3.44121 19.3289C3.89458 20.1699 4.58269 20.847 5.41395 21.2698C5.92529 21.53 6.4788 21.6431 7.13095 21.6973C7.76785 21.7502 8.55498 21.7502 9.54683 21.7502H11.4584C12.4502 21.7502 13.2374 21.7502 13.8743 21.6973C14.5264 21.6431 15.0799 21.53 15.5913 21.2698C16.4225 20.847 17.1106 20.1699 17.564 19.3289C17.8429 18.8115 17.9836 18.2415 18.0737 17.5654C18.1618 16.9051 18.208 16.0851 18.2662 15.052L18.847 4.75021L20.0859 4.75021C20.4829 4.75021 20.8047 4.41443 20.8047 4.00021C20.8047 3.586 20.4829 3.25021 20.0859 3.25021L14.854 3.25021L14.5837 2.4041C14.5726 2.3694 14.5617 2.33498 14.5508 2.30085C14.3962 1.81431 14.2604 1.38727 13.9956 1.05682C13.764 0.767864 13.4666 0.5442 13.1307 0.406335C12.7465 0.248668 12.3154 0.24934 11.8241 0.250105ZM14.3525 4.75021C14.3414 4.75049 14.3302 4.75048 14.3192 4.75021L6.68605 4.75021C6.67496 4.75048 6.66384 4.75049 6.65269 4.75021L3.59821 4.75021L4.17218 14.932C4.23262 16.0042 4.27601 16.7645 4.35525 17.3587C4.43328 17.9439 4.53931 18.3063 4.69411 18.5935C5.00431 19.169 5.47513 19.6322 6.04388 19.9215C6.32772 20.0659 6.68068 20.1551 7.24511 20.202C7.81824 20.2497 8.54815 20.2502 9.57742 20.2502H11.4278C12.4571 20.2502 13.187 20.2497 13.7601 20.202C14.3245 20.1551 14.6775 20.0659 14.9613 19.9215C15.5301 19.6322 16.0009 19.169 16.3111 18.5935C16.4659 18.3063 16.5719 17.9439 16.65 17.3587C16.7292 16.7645 16.7726 16.0042 16.833 14.932L17.407 4.75021L14.3525 4.75021ZM7.66648 3.25021L13.3387 3.25021L13.22 2.87844C13.0121 2.22761 12.9591 2.10174 12.8929 2.01908C12.8157 1.92276 12.7166 1.84821 12.6046 1.80225C12.5085 1.76282 12.3773 1.75021 11.7199 1.75021L9.28535 1.75021C8.62791 1.75021 8.49672 1.76282 8.40063 1.80225C8.28865 1.84821 8.18952 1.92276 8.11233 2.01908C8.04609 2.10174 7.99315 2.22761 7.78524 2.87844L7.66648 3.25021ZM12.4193 8.25021C12.0223 8.25021 11.7005 8.586 11.7005 9.00021L11.7005 16.0002C11.7005 16.4144 12.0223 16.7502 12.4193 16.7502C12.8162 16.7502 13.138 16.4144 13.138 16.0002V9.00021C13.138 8.586 12.8162 8.25021 12.4193 8.25021ZM8.58594 8.25021C8.18898 8.25021 7.86719 8.586 7.86719 9.00021L7.86719 13.0002C7.86719 13.4144 8.18898 13.7502 8.58594 13.7502C8.98289 13.7502 9.30469 13.4144 9.30469 13.0002L9.30469 9.00021C9.30469 8.586 8.98289 8.25021 8.58594 8.25021Z" fill="#C63C3C"/>
</svg>
