<svg width="23" height="22" viewBox="0 0 23 22" fill="none" xmlns="http://www.w3.org/2000/svg">
<path fill-rule="evenodd" clip-rule="evenodd" d="M15.6018 1.83982C15.2479 1.75484 14.8631 1.75002 13.849 1.75002H7.9C6.76752 1.75002 5.96326 1.7506 5.33388 1.80203C4.71325 1.85273 4.329 1.94911 4.02453 2.10425C3.413 2.41584 2.91582 2.91303 2.60423 3.52455C2.44909 3.82902 2.35271 4.21328 2.30201 4.8339C2.25058 5.46329 2.25 6.26754 2.25 7.40002V14.6C2.25 15.7325 2.25058 16.5368 2.30201 17.1661C2.35271 17.7868 2.44909 18.171 2.60423 18.4755C2.91582 19.087 3.413 19.5842 4.02453 19.8958C4.329 20.0509 4.71325 20.1473 5.33388 20.198C5.72578 20.23 6.18548 20.2423 6.75 20.2471V15.1696C6.74999 14.6354 6.74998 14.1896 6.77974 13.8254C6.81078 13.4455 6.87789 13.0888 7.04973 12.7515C7.31338 12.2341 7.73408 11.8134 8.25153 11.5498C8.58879 11.3779 8.94545 11.3108 9.32533 11.2798C9.68956 11.25 10.1354 11.25 10.6695 11.25H12.3305C12.8646 11.25 13.3104 11.25 13.6747 11.2798C14.0546 11.3108 14.4112 11.3779 14.7485 11.5498C15.2659 11.8134 15.6866 12.2341 15.9503 12.7515C16.1221 13.0888 16.1892 13.4455 16.2203 13.8254C16.25 14.1896 16.25 14.6354 16.25 15.1696V20.2471C16.8145 20.2423 17.2742 20.23 17.6661 20.198C18.2867 20.1473 18.671 20.0509 18.9755 19.8958C19.587 19.5842 20.0842 19.087 20.3958 18.4755C20.5509 18.171 20.6473 17.7868 20.698 17.1661C20.7494 16.5368 20.75 15.7325 20.75 14.6V8.65099C20.75 7.63693 20.7452 7.25214 20.6602 6.89818C20.5806 6.56656 20.4493 6.24954 20.2711 5.95876C20.0809 5.64838 19.8122 5.37288 19.0952 4.65584L17.8442 3.40487C17.1271 2.68782 16.8516 2.41914 16.5413 2.22894C16.2505 2.05075 15.9335 1.91943 15.6018 1.83982ZM14.75 20.25V15.2C14.75 14.6276 14.7494 14.2434 14.7252 13.9475C14.7018 13.6604 14.6599 13.5231 14.6138 13.4325C14.4939 13.1973 14.3027 13.0061 14.0675 12.8863C13.9769 12.8401 13.8396 12.7982 13.5525 12.7748C13.2566 12.7506 12.8724 12.75 12.3 12.75H10.7C10.1276 12.75 9.74336 12.7506 9.44748 12.7748C9.16035 12.7982 9.02307 12.8401 8.93251 12.8863C8.69731 13.0061 8.50608 13.1973 8.38624 13.4325C8.3401 13.5231 8.29822 13.6604 8.27476 13.9475C8.25058 14.2434 8.25 14.6276 8.25 15.2V20.25H14.75ZM13.9426 0.25001C14.8314 0.249856 15.4042 0.249757 15.952 0.381264C16.4367 0.497623 16.9 0.689544 17.325 0.94998C17.8053 1.24432 18.2103 1.64945 18.8387 2.27808C18.8605 2.29985 18.8825 2.32189 18.9048 2.34421L20.1558 3.59518C20.1781 3.6175 20.2002 3.63954 20.222 3.66131C20.8506 4.28971 21.2557 4.69469 21.55 5.17501C21.8105 5.6 22.0024 6.06334 22.1188 6.54801C22.2503 7.09578 22.2502 7.6686 22.25 8.55746C22.25 8.58825 22.25 8.61942 22.25 8.65099V14.633C22.25 15.7252 22.25 16.5907 22.193 17.2883C22.1347 18.0017 22.0131 18.6053 21.7323 19.1565C21.2769 20.0502 20.5502 20.7769 19.6565 21.2323C19.1053 21.5131 18.5017 21.6347 17.7883 21.693C17.0906 21.75 16.2252 21.75 15.133 21.75H7.86698C6.77484 21.75 5.90935 21.75 5.21173 21.693C4.49834 21.6347 3.89472 21.5131 3.34355 21.2323C2.44978 20.7769 1.72312 20.0502 1.26772 19.1565C0.986882 18.6053 0.865274 18.0017 0.806988 17.2883C0.74999 16.5907 0.749994 15.7252 0.75 14.633V7.36702C0.749994 6.27488 0.74999 5.40938 0.806988 4.71175C0.865274 3.99837 0.986882 3.39474 1.26772 2.84357C1.72312 1.9498 2.44978 1.22314 3.34355 0.76774C3.89472 0.486903 4.49835 0.365295 5.21173 0.307009C5.90936 0.250011 6.77486 0.250015 7.867 0.250021L13.849 0.250021C13.8806 0.250021 13.9118 0.250016 13.9426 0.25001ZM6.75 7.00002C6.75 6.58581 7.08579 6.25002 7.5 6.25002H15.5C15.9142 6.25002 16.25 6.58581 16.25 7.00002C16.25 7.41423 15.9142 7.75002 15.5 7.75002H7.5C7.08579 7.75002 6.75 7.41423 6.75 7.00002Z" fill="#F0F8FF"/>
</svg>
