<svg width="22" height="23" viewBox="0 0 22 23" fill="none" xmlns="http://www.w3.org/2000/svg">
<path fill-rule="evenodd" clip-rule="evenodd" d="M5.09846 1.04934L12.3735 2.33318C13.2888 2.49469 14.017 2.62319 14.6025 2.77256C15.2034 2.92585 15.7064 3.11317 16.1582 3.41799C16.896 3.91575 17.4791 4.61077 17.8411 5.42384C18.0628 5.92177 18.1598 6.44968 18.2064 7.06809C18.2517 7.67067 18.2517 8.4101 18.2517 9.33946V11.4691C19.0194 11.1861 19.9155 11.3528 20.532 11.9694C21.3772 12.8146 21.3772 14.1849 20.532 15.0301L14.032 21.5301C13.1868 22.3752 11.8165 22.3752 10.9714 21.5301C10.2143 20.773 10.1354 19.5946 10.7345 18.7497H8.84142C7.91205 18.7497 7.17262 18.7497 6.57004 18.7044C5.95163 18.6579 5.42372 18.5608 4.9258 18.3392C4.11272 17.9772 3.4177 17.3941 2.91994 16.6563C2.61512 16.2045 2.42781 15.7014 2.27451 15.1005C2.12514 14.515 1.99664 13.7868 1.83513 12.8716L0.551297 5.59651C0.422972 4.8694 0.317843 4.27372 0.277088 3.79301C0.235418 3.3015 0.24984 2.8309 0.436339 2.39146C0.714829 1.73528 1.23724 1.21288 1.89342 0.934386C2.33285 0.747886 2.80345 0.733465 3.29496 0.775135C3.77568 0.81589 4.37135 0.921018 5.09846 1.04934ZM12.191 17.2497L16.7517 12.6891V9.36922C16.7517 8.40344 16.7512 7.72037 16.7106 7.18064C16.6707 6.65032 16.5949 6.31262 16.4708 6.03389C16.2231 5.47758 15.8241 5.00203 15.3193 4.66147C15.0664 4.49083 14.747 4.35747 14.2317 4.22601C13.7072 4.09222 13.0347 3.97303 12.0836 3.80519L4.87322 2.53277C4.10197 2.39667 3.57334 2.30412 3.16825 2.26977C3.02686 2.25779 2.91285 2.25428 2.81983 2.25673L6.53297 5.96987C6.82586 6.26276 6.82586 6.73763 6.53297 7.03053C6.24007 7.32342 5.7652 7.32342 5.47231 7.03053L1.75871 3.31693C1.75621 3.41012 1.7597 3.52443 1.77173 3.66629C1.80607 4.07138 1.89862 4.60002 2.03473 5.37127L3.30714 12.5816C3.47498 13.5327 3.59417 14.2053 3.72796 14.7298C3.85942 15.2451 3.99278 15.5645 4.16342 15.8174C4.50399 16.3222 4.97953 16.7212 5.53584 16.9688C5.81458 17.0929 6.15227 17.1687 6.68259 17.2086C7.22232 17.2492 7.90539 17.2497 8.87117 17.2497H12.191ZM9.50267 8.74974C8.81231 8.74974 8.25267 9.30938 8.25267 9.99974C8.25267 10.6901 8.81231 11.2497 9.50267 11.2497C10.193 11.2497 10.7527 10.6901 10.7527 9.99974C10.7527 9.30938 10.193 8.74974 9.50267 8.74974ZM6.75267 9.99974C6.75267 8.48095 7.98388 7.24974 9.50267 7.24974C11.0214 7.24974 12.2527 8.48095 12.2527 9.99974C12.2527 11.5185 11.0215 12.7497 9.50267 12.7497C7.98388 12.7497 6.75267 11.5185 6.75267 9.99974ZM19.4714 13.0301C19.212 12.7707 18.7914 12.7707 18.532 13.0301L12.032 19.5301C11.7726 19.7895 11.7726 20.21 12.032 20.4694C12.2914 20.7288 12.712 20.7288 12.9714 20.4694L19.4714 13.9694C19.7308 13.71 19.7308 13.2895 19.4714 13.0301Z" fill="#F0F8FF"/>
</svg>
