<svg width="21" height="20" viewBox="0 0 21 20" fill="none" xmlns="http://www.w3.org/2000/svg">
<path fill-rule="evenodd" clip-rule="evenodd" d="M7.62908 1.04199H8.68408C9.5942 1.04199 10.3154 1.04198 10.8968 1.08948C11.4913 1.13805 11.9943 1.23939 12.4536 1.47342C13.1984 1.85292 13.804 2.45847 14.1835 3.20328C14.4175 3.66259 14.5188 4.16561 14.5674 4.7601C14.5974 5.12752 14.6085 5.55081 14.6125 6.04235C15.0945 6.04351 15.4974 6.04851 15.8395 6.06992C16.2952 6.09844 16.6846 6.15782 17.0509 6.2957C18.1177 6.69722 18.9597 7.53917 19.3612 8.606C19.4991 8.97234 19.5585 9.36167 19.587 9.81738C19.6149 10.2636 19.6149 10.8135 19.6149 11.5072V13.0278C19.6149 13.938 19.6149 14.6592 19.5674 15.2405C19.5188 15.835 19.4175 16.3381 19.1835 16.7974C18.804 17.5422 18.1984 18.1477 17.4536 18.5272C16.9943 18.7613 16.4913 18.8626 15.8968 18.9112C15.3154 18.9587 14.5942 18.9587 13.6841 18.9587H12.1635C11.4697 18.9587 10.9199 18.9587 10.4736 18.9307C10.0179 18.9022 9.62859 18.8428 9.26225 18.705C8.19542 18.3034 7.35347 17.4615 6.95195 16.3946C6.81407 16.0283 6.75469 15.639 6.72617 15.1833C6.70476 14.8412 6.69976 14.4383 6.6986 13.9563C6.20706 13.9522 5.78377 13.9412 5.41635 13.9112C4.82186 13.8626 4.31884 13.7613 3.85953 13.5272C3.11472 13.1477 2.50917 12.5422 2.12967 11.7974C1.89564 11.3381 1.7943 10.835 1.74573 10.2405C1.69823 9.6592 1.69824 8.93795 1.69824 8.02783V6.97283C1.69824 6.06271 1.69823 5.34146 1.74573 4.7601C1.7943 4.16561 1.89564 3.66259 2.12967 3.20328C2.50917 2.45847 3.11472 1.85292 3.85953 1.47342C4.31884 1.23939 4.82186 1.13805 5.41635 1.08948C5.9977 1.04198 6.71895 1.04199 7.62908 1.04199ZM7.94864 13.9587C7.94983 14.4322 7.95461 14.7998 7.97373 15.1052C7.99862 15.5028 8.04606 15.753 8.12183 15.9543C8.39656 16.6843 8.97263 17.2603 9.70257 17.5351C9.90388 17.6108 10.1541 17.6583 10.5517 17.6832C10.9543 17.7084 11.4651 17.7087 12.1844 17.7087H13.6566C14.6003 17.7087 15.2705 17.7082 15.795 17.6653C16.3122 17.6231 16.6324 17.5427 16.8861 17.4135C17.3957 17.1538 17.8101 16.7395 18.0697 16.2299C18.199 15.9762 18.2793 15.6559 18.3216 15.1388C18.3644 14.6143 18.3649 13.9441 18.3649 13.0003V11.5281C18.3649 10.8088 18.3646 10.2981 18.3394 9.89547C18.3145 9.49784 18.2671 9.24763 18.1913 9.04632C17.9166 8.31638 17.3405 7.74031 16.6106 7.46558C16.4093 7.38981 16.1591 7.34237 15.7614 7.31748C15.4561 7.29836 15.0885 7.29358 14.6149 7.29239V8.02784C14.6149 8.93796 14.6149 9.6592 14.5674 10.2405C14.5188 10.835 14.4175 11.3381 14.1835 11.7974C13.804 12.5422 13.1984 13.1477 12.4536 13.5272C11.9943 13.7613 11.4913 13.8626 10.8968 13.9112C10.3154 13.9587 9.5942 13.9587 8.68409 13.9587H7.94864ZM5.51814 2.33533C5.00095 2.37759 4.68075 2.4579 4.42702 2.58718C3.91741 2.84684 3.50309 3.26116 3.24343 3.77077C3.11415 4.0245 3.03384 4.3447 2.99158 4.86189C2.94873 5.38638 2.94824 6.05659 2.94824 7.00033V8.00033C2.94824 8.94406 2.94873 9.61427 2.99158 10.1388C3.03384 10.6559 3.11415 10.9762 3.24343 11.2299C3.50309 11.7395 3.91741 12.1538 4.42702 12.4135C4.68075 12.5427 5.00095 12.6231 5.51814 12.6653C6.04263 12.7082 6.71284 12.7087 7.65658 12.7087H8.65658C9.60031 12.7087 10.2705 12.7082 10.795 12.6653C11.3122 12.6231 11.6324 12.5427 11.8861 12.4135C12.3957 12.1538 12.8101 11.7395 13.0697 11.2299C13.199 10.9762 13.2793 10.6559 13.3216 10.1388C13.3644 9.61427 13.3649 8.94406 13.3649 8.00033V7.00033C13.3649 6.05659 13.3644 5.38638 13.3216 4.86189C13.2793 4.3447 13.199 4.0245 13.0697 3.77077C12.8101 3.26116 12.3957 2.84684 11.8861 2.58718C11.6324 2.4579 11.3122 2.37759 10.795 2.33533C10.2705 2.29248 9.60031 2.29199 8.65657 2.29199H7.65658C6.71284 2.29199 6.04263 2.29248 5.51814 2.33533Z" fill="#62748E"/>
</svg>
