<svg width="21" height="20" viewBox="0 0 21 20" fill="none" xmlns="http://www.w3.org/2000/svg">
<path fill-rule="evenodd" clip-rule="evenodd" d="M11.1356 2.31072C10.853 2.2932 10.4819 2.292 9.90906 2.292C8.81986 2.292 8.03776 2.29242 7.42234 2.33903C6.81344 2.38515 6.41874 2.47384 6.09694 2.62392C5.34246 2.9758 4.73604 3.58221 4.38417 4.3367C4.23408 4.6585 4.14539 5.05319 4.09927 5.6621C4.05266 6.27752 4.05225 7.05962 4.05225 8.14882V11.667C4.05225 12.8441 4.05273 13.6893 4.10694 14.3528C4.16055 15.0089 4.26357 15.432 4.43826 15.7749C4.77782 16.4413 5.31962 16.9831 5.98603 17.3227C6.32889 17.4973 6.752 17.6004 7.40815 17.654C8.0716 17.7082 8.91682 17.7087 10.0939 17.7087C11.271 17.7087 12.1162 17.7082 12.7797 17.654C13.4358 17.6004 13.8589 17.4973 14.2018 17.3227C14.8682 16.9831 15.41 16.4413 15.7496 15.7749C15.9243 15.432 16.0273 15.0089 16.0809 14.3528C16.1351 13.6893 16.1356 12.8441 16.1356 11.667V8.59509C16.1356 7.9907 16.1342 7.59427 16.1152 7.29203H14.4019C13.9568 7.29204 13.5852 7.29204 13.2817 7.26724C12.9651 7.24138 12.6679 7.18545 12.3869 7.04225C11.9556 6.82254 11.6051 6.47196 11.3854 6.04076C11.2422 5.7597 11.1862 5.46249 11.1604 5.14592C11.1356 4.84239 11.1356 4.47086 11.1356 4.02574V2.31072ZM12.3856 2.6336V4.00036C12.3856 4.47738 12.3861 4.79756 12.4062 5.04413C12.4258 5.2834 12.4607 5.3978 12.4991 5.47327C12.599 5.66927 12.7583 5.82862 12.9543 5.92849C13.0298 5.96695 13.1442 6.00185 13.3835 6.0214C13.63 6.04154 13.9502 6.04203 14.4272 6.04203H15.794C15.7399 5.92805 15.6798 5.81689 15.6137 5.70904C15.4036 5.3663 15.1077 5.06466 14.366 4.32299L14.0504 4.00742C13.3638 3.32078 13.0846 3.04647 12.7709 2.8466C12.6468 2.76754 12.5181 2.69643 12.3856 2.6336ZM9.98547 1.042C10.8562 1.0419 11.3922 1.04185 11.9053 1.15562C12.4509 1.27659 12.9711 1.49208 13.4425 1.79234C13.8857 2.07471 14.2647 2.45376 14.8803 3.0695C14.8981 3.08732 14.9161 3.10533 14.9343 3.12354L15.2499 3.43911C15.2696 3.45877 15.289 3.47822 15.3083 3.49745C15.9733 4.16232 16.3827 4.5717 16.6795 5.05592C16.9422 5.48464 17.1358 5.95204 17.2532 6.44097C17.3858 6.99319 17.3857 7.57219 17.3856 8.51257C17.3856 8.53977 17.3856 8.56728 17.3856 8.59509V11.695C17.3856 12.8381 17.3856 13.7343 17.3267 14.4546C17.2668 15.188 17.1428 15.7939 16.8633 16.3424C16.4039 17.244 15.6709 17.977 14.7693 18.4364C14.2208 18.7159 13.6149 18.8399 12.8815 18.8998C12.1612 18.9587 11.265 18.9587 10.1219 18.9587H10.0659C8.92284 18.9587 8.02665 18.9587 7.30636 18.8998C6.57291 18.8399 5.96698 18.7159 5.41854 18.4364C4.51693 17.977 3.7839 17.244 3.32451 16.3424C3.04506 15.7939 2.92101 15.188 2.86109 14.4546C2.80224 13.7343 2.80224 12.8381 2.80225 11.695V8.12297C2.80224 7.06518 2.80224 6.23584 2.85284 5.5677C2.90435 4.88761 3.0109 4.32383 3.25131 3.80835C3.72739 2.78758 4.54783 1.96714 5.5686 1.49107C6.08408 1.25066 6.64785 1.14411 7.32794 1.0926C7.99608 1.042 8.82542 1.042 9.88322 1.042L9.90906 1.042C9.93481 1.042 9.96028 1.042 9.98547 1.042ZM9.65197 8.72506C9.89605 8.48098 10.2918 8.48098 10.5359 8.72506L12.6192 10.8084C12.8633 11.0525 12.8633 11.4482 12.6192 11.6923C12.3751 11.9364 11.9794 11.9364 11.7353 11.6923L10.7189 10.6759V14.167C10.7189 14.5122 10.4391 14.792 10.0939 14.792C9.74873 14.792 9.46891 14.5122 9.46891 14.167V10.6759L8.45252 11.6923C8.20844 11.9364 7.81272 11.9364 7.56864 11.6923C7.32456 11.4482 7.32456 11.0525 7.56864 10.8084L9.65197 8.72506Z" fill="#62748E"/>
</svg>
