<svg width="21" height="20" viewBox="0 0 21 20" fill="none" xmlns="http://www.w3.org/2000/svg">
<path fill-rule="evenodd" clip-rule="evenodd" d="M8.52396 1.04199L10.2186 1.04199C10.5638 1.04199 10.8436 1.32181 10.8436 1.66699C10.8436 2.01217 10.5638 2.29199 10.2186 2.29199H8.55192C7.37483 2.29199 6.5296 2.29248 5.86616 2.34668C5.21001 2.40029 4.78689 2.50332 4.44404 2.67801C3.77763 3.01756 3.23582 3.55937 2.89627 4.22578C2.72158 4.56863 2.61856 4.99175 2.56495 5.6479C2.51074 6.31134 2.51025 7.15657 2.51025 8.33366V11.667C2.51025 12.8441 2.51074 13.6893 2.56495 14.3528C2.61856 15.0089 2.72158 15.432 2.89627 15.7749C3.23582 16.4413 3.77763 16.9831 4.44404 17.3226C4.78689 17.4973 5.21001 17.6004 5.86616 17.654C6.5296 17.7082 7.37483 17.7087 8.55192 17.7087H11.8853C13.0623 17.7087 13.9076 17.7082 14.571 17.654C15.2272 17.6004 15.6503 17.4973 15.9931 17.3226C16.6595 16.9831 17.2014 16.4413 17.5409 15.7749C17.7156 15.432 17.8186 15.0089 17.8722 14.3528C17.9264 13.6893 17.9269 12.8441 17.9269 11.667V10.0003C17.9269 9.65515 18.2067 9.37533 18.5519 9.37533C18.8971 9.37533 19.1769 9.65515 19.1769 10.0003V11.695C19.1769 12.8381 19.1769 13.7343 19.1181 14.4545C19.0582 15.188 18.9341 15.7939 18.6547 16.3424C18.1953 17.244 17.4622 17.977 16.5606 18.4364C16.0122 18.7158 15.4063 18.8399 14.6728 18.8998C13.9525 18.9587 13.0563 18.9587 11.9132 18.9587H8.52394C7.38085 18.9587 6.48465 18.9587 5.76437 18.8998C5.03092 18.8399 4.42499 18.7158 3.87655 18.4364C2.97494 17.977 2.24191 17.244 1.78251 16.3424C1.50307 15.7939 1.37902 15.188 1.3191 14.4545C1.26025 13.7343 1.26025 12.8381 1.26025 11.695V8.30569C1.26025 7.16259 1.26025 6.2664 1.3191 5.54611C1.37902 4.81265 1.50307 4.20673 1.78251 3.65829C2.24191 2.75668 2.97494 2.02365 3.87655 1.56425C4.42499 1.28481 5.03092 1.16076 5.76437 1.10084C6.48466 1.04199 7.38086 1.04199 8.52396 1.04199ZM16.7526 3.2532C16.3553 2.89206 15.7486 2.89206 15.3513 3.2532C15.3357 3.26737 15.3153 3.28746 15.2439 3.35893L14.988 3.61477C14.9678 4.51159 15.7073 5.25111 16.6041 5.23089L16.86 4.97505C16.9315 4.90358 16.9515 4.88324 16.9657 4.86765C17.3269 4.47035 17.3269 3.86364 16.9657 3.46634C16.9515 3.45075 16.9315 3.43041 16.86 3.35893C16.7885 3.28746 16.7682 3.26737 16.7526 3.2532ZM17.3317 6.27113L17.7543 5.84847C17.8105 5.79235 17.8537 5.74912 17.8907 5.70843C18.6852 4.83437 18.6852 3.49961 17.8907 2.62555C17.8537 2.58485 17.8104 2.54162 17.7543 2.48547L17.7334 2.46458C17.6773 2.40844 17.6341 2.36521 17.5934 2.32823C16.7193 1.53372 15.3845 1.53372 14.5105 2.32823C14.4698 2.36521 14.4266 2.40844 14.3705 2.46456L13.9478 2.88722C13.9446 2.89041 13.9413 2.89363 13.9381 2.89689L10.8212 6.01381C10.8088 6.02621 10.7966 6.03846 10.7845 6.05056C10.4306 6.4043 10.2025 6.63241 10.0144 6.89403C9.84776 7.12585 9.70669 7.37502 9.59364 7.63718C9.46606 7.93306 9.38785 8.24608 9.26656 8.73149C9.26241 8.74808 9.25821 8.76488 9.25396 8.78188L8.77892 10.6821C8.72567 10.8951 8.78807 11.1204 8.94331 11.2756C9.09855 11.4308 9.32385 11.4932 9.53684 11.44L11.437 10.965C11.454 10.9607 11.4708 10.9565 11.4874 10.9524C11.9728 10.8311 12.2859 10.7529 12.5817 10.6253C12.8439 10.5122 13.0931 10.3712 13.3249 10.2045C13.5865 10.0164 13.8146 9.78827 14.1684 9.43444C14.1805 9.42234 14.1927 9.41009 14.2051 9.3977L17.322 6.28075C17.3253 6.27758 17.3285 6.27437 17.3317 6.27113ZM15.545 6.29C14.8072 6.00196 14.217 5.41168 13.9289 4.67388L11.7051 6.8977C11.3024 7.30038 11.151 7.45445 11.0294 7.62365C10.9154 7.78226 10.8188 7.95274 10.7415 8.13212C10.659 8.32347 10.6048 8.53257 10.4666 9.08505L10.2442 9.97468L11.1339 9.75227C11.6863 9.61415 11.8954 9.55994 12.0868 9.47743C12.2662 9.40008 12.4367 9.30356 12.5953 9.18954C12.7645 9.06791 12.9185 8.9165 13.3212 8.51381L15.545 6.29Z" fill="#62748E"/>
</svg>
