<svg width="21" height="20" viewBox="0 0 21 20" fill="none" xmlns="http://www.w3.org/2000/svg">
<path fill-rule="evenodd" clip-rule="evenodd" d="M9.38194 1.0411C9.4119 1.04115 9.44212 1.04119 9.47261 1.04119H11.5896C11.6201 1.04119 11.6503 1.04115 11.6802 1.0411C12.1074 1.04047 12.4823 1.03991 12.8164 1.17129C13.1085 1.28618 13.3671 1.47257 13.5685 1.71336C13.7988 1.98874 13.9168 2.3446 14.0513 2.75005C14.0607 2.77849 14.0702 2.80718 14.0799 2.8361L14.3149 3.54119H18.8644C19.2096 3.54119 19.4894 3.82102 19.4894 4.16619C19.4894 4.51137 19.2096 4.79119 18.8644 4.79119H17.7871L17.2821 13.3761C17.2314 14.237 17.1913 14.9203 17.1147 15.4705C17.0363 16.034 16.9139 16.5089 16.6714 16.9401C16.2772 17.641 15.6788 18.2052 14.956 18.5576C14.5114 18.7743 14.03 18.8686 13.463 18.9137C12.9091 18.9579 12.2247 18.9579 11.3622 18.9579H9.69998C8.8375 18.9579 8.15304 18.9579 7.59922 18.9137C7.03213 18.8686 6.55082 18.7743 6.10617 18.5576C5.38333 18.2052 4.78498 17.641 4.39074 16.9401C4.14823 16.5089 4.02589 16.034 3.94749 15.4705C3.87092 14.9202 3.83073 14.237 3.78009 13.376L3.2751 4.79119H2.19775C1.85258 4.79119 1.57275 4.51137 1.57275 4.16619C1.57275 3.82102 1.85258 3.54119 2.19775 3.54119H6.74728L6.98231 2.8361C6.99195 2.80718 7.00146 2.7785 7.0109 2.75006C7.14538 2.3446 7.26341 1.98874 7.4937 1.71336C7.69506 1.47257 7.95366 1.28618 8.24578 1.17129C8.57985 1.03991 8.95477 1.04047 9.38194 1.0411ZM7.18334 4.79119C7.19303 4.79142 7.2027 4.79142 7.21235 4.79119H13.8498C13.8595 4.79142 13.8691 4.79142 13.8788 4.79119H16.5349L16.0358 13.276C15.9832 14.1695 15.9455 14.8031 15.8766 15.2983C15.8088 15.7859 15.7166 16.0879 15.582 16.3273C15.3122 16.8068 14.9028 17.1929 14.4082 17.434C14.1614 17.5543 13.8545 17.6286 13.3637 17.6677C12.8653 17.7074 12.2306 17.7079 11.3356 17.7079H9.72658C8.83156 17.7079 8.19686 17.7074 7.69848 17.6677C7.20768 17.6286 6.90075 17.5543 6.65394 17.434C6.15937 17.1929 5.74996 16.8068 5.48023 16.3273C5.34561 16.0879 5.25341 15.7859 5.18556 15.2983C5.11666 14.8031 5.07893 14.1695 5.02637 13.276L4.52727 4.79119H7.18334ZM12.9973 3.54119H8.0649L8.16817 3.23138C8.34895 2.68903 8.39499 2.58413 8.45259 2.51525C8.51971 2.43499 8.60591 2.37286 8.70328 2.33456C8.78684 2.3017 8.90092 2.29119 9.47261 2.29119H11.5896C12.1613 2.29119 12.2753 2.3017 12.3589 2.33456C12.4563 2.37286 12.5425 2.43499 12.6096 2.51525C12.6672 2.58413 12.7132 2.68903 12.894 3.23138L12.9973 3.54119ZM8.86442 7.70786C9.2096 7.70786 9.48942 7.98768 9.48942 8.33286V14.1662C9.48942 14.5114 9.2096 14.7912 8.86442 14.7912C8.51924 14.7912 8.23942 14.5114 8.23942 14.1662V8.33286C8.23942 7.98768 8.51924 7.70786 8.86442 7.70786ZM12.1978 7.70786C12.5429 7.70786 12.8228 7.98768 12.8228 8.33286V11.6662C12.8228 12.0114 12.5429 12.2912 12.1978 12.2912C11.8526 12.2912 11.5728 12.0114 11.5728 11.6662V8.33286C11.5728 7.98768 11.8526 7.70786 12.1978 7.70786Z" fill="#E7000B"/>
</svg>
