<svg width="24" height="24" viewBox="0 0 24 24" fill="none" xmlns="http://www.w3.org/2000/svg">
<path fill-rule="evenodd" clip-rule="evenodd" d="M9.47348 1.25H14.5268C15.2031 1.24999 15.7486 1.24999 16.1926 1.28029C16.6492 1.31144 17.0529 1.37711 17.4352 1.53545C18.354 1.91605 19.0841 2.64608 19.4647 3.56494C19.5555 3.78426 19.6159 4.01064 19.6567 4.25H21.0001C21.0284 4.25 21.0563 4.24997 21.084 4.24994C21.4648 4.24954 21.7933 4.24919 22.0825 4.32667C22.8589 4.53472 23.4654 5.1412 23.6734 5.91766C23.7509 6.20681 23.7506 6.53533 23.7502 6.91613C23.7501 6.94381 23.7501 6.97176 23.7501 7C23.7501 7.03917 23.7501 7.07776 23.7501 7.11578C23.7504 7.93375 23.7506 8.49191 23.6223 8.97057C23.2756 10.2647 22.2648 11.2755 20.9707 11.6222C20.492 11.7505 19.9339 11.7503 19.1159 11.75C19.0941 11.75 19.0721 11.75 19.0499 11.75C18.3531 13.0297 17.1878 14.0102 15.777 14.4686C15.0139 14.7165 14.1164 14.7462 12.7501 14.7496V17.25H13.091C15.1119 17.25 16.7501 18.8882 16.7501 20.9091C16.7501 21.9258 15.9259 22.75 14.9092 22.75H9.09103C8.07432 22.75 7.25012 21.9258 7.25012 20.9091C7.25012 18.8882 8.88835 17.25 10.9092 17.25H11.2501V14.7496C9.88383 14.7462 8.98635 14.7165 8.22327 14.4686C6.81241 14.0102 5.64715 13.0297 4.95029 11.75C4.92811 11.75 4.90612 11.75 4.88432 11.75C4.06636 11.7503 3.50821 11.7505 3.02954 11.6222C1.73545 11.2755 0.724646 10.2647 0.377894 8.97057C0.249637 8.49191 0.249821 7.93376 0.250091 7.1158C0.250103 7.07776 0.250116 7.03917 0.250116 7C0.250116 6.97176 0.250086 6.9438 0.250057 6.91612C0.249654 6.53533 0.249307 6.2068 0.326783 5.91766C0.534834 5.1412 1.14132 4.53472 1.91777 4.32667C2.20692 4.24919 2.53544 4.24954 2.91623 4.24994C2.94392 4.24997 2.97188 4.25 3.00012 4.25H4.34356C4.38438 4.01064 4.44472 3.78426 4.53557 3.56494C4.91617 2.64608 5.6462 1.91605 6.56505 1.53545C6.94733 1.37711 7.35104 1.31144 7.8076 1.28029C8.2516 1.24999 8.79716 1.24999 9.47348 1.25ZM4.25183 5.75H3.00012C2.48684 5.75 2.37734 5.75644 2.306 5.77556C2.04718 5.84491 1.84502 6.04707 1.77567 6.30589C1.75656 6.37722 1.75012 6.48673 1.75012 7C1.75012 7.97826 1.75656 8.32026 1.82678 8.58234C2.03483 9.3588 2.64132 9.96528 3.41777 10.1733C3.61685 10.2267 3.86203 10.2432 4.39715 10.2481C4.24973 9.47976 4.24988 8.5367 4.2501 7.16184C4.25011 7.10855 4.25012 7.05461 4.25012 7V6.47336C4.25011 6.21349 4.25011 5.97292 4.25183 5.75ZM10.9092 18.75C9.71677 18.75 8.75012 19.7167 8.75012 20.9091C8.75012 21.0974 8.90275 21.25 9.09103 21.25H14.9092C15.0975 21.25 15.2501 21.0974 15.2501 20.9091C15.2501 19.7167 14.2835 18.75 13.091 18.75H10.9092ZM12.0001 13.25C13.9198 13.25 14.7017 13.2407 15.3134 13.042C16.6073 12.6216 17.6217 11.6072 18.0421 10.3133C18.2409 9.70161 18.2501 8.91966 18.2501 7V6.5C18.2501 5.79083 18.2497 5.29651 18.2233 4.90959C18.1974 4.5294 18.1489 4.308 18.0788 4.13896C17.8505 3.58765 17.4125 3.14963 16.8612 2.92127C16.6921 2.85125 16.4707 2.80275 16.0905 2.77681C15.7036 2.75041 15.2093 2.75 14.5001 2.75H9.50012C8.79094 2.75 8.29662 2.75041 7.9097 2.77681C7.52952 2.80275 7.30812 2.85125 7.13908 2.92127C6.58776 3.14963 6.14975 3.58765 5.92139 4.13896C5.85137 4.308 5.80286 4.5294 5.77692 4.90959C5.75052 5.29651 5.75012 5.79083 5.75012 6.5V7C5.75012 8.91966 5.75937 9.70161 5.95813 10.3133C6.37853 11.6072 7.39293 12.6216 8.68679 13.042C9.2985 13.2407 10.0805 13.25 12.0001 13.25ZM19.6031 10.2481C20.1382 10.2432 20.3834 10.2267 20.5825 10.1733C21.3589 9.96528 21.9654 9.3588 22.1734 8.58234C22.2437 8.32026 22.2501 7.97826 22.2501 7C22.2501 6.48673 22.2437 6.37722 22.2246 6.30589C22.1552 6.04707 21.9531 5.84491 21.6942 5.77556C21.6229 5.75644 21.5134 5.75 21.0001 5.75H19.7484C19.7501 5.97292 19.7501 6.21349 19.7501 6.47336V7C19.7501 7.0546 19.7501 7.10854 19.7501 7.16183C19.7503 8.5367 19.7505 9.47976 19.6031 10.2481Z" fill="#4D637C"/>
</svg>
