<svg width="24" height="24" viewBox="0 0 24 24" fill="none" xmlns="http://www.w3.org/2000/svg">
<path fill-rule="evenodd" clip-rule="evenodd" d="M12.8925 2.87498C12.4787 2.75681 12.0168 2.75003 10.8 2.75003H4C3.30964 2.75003 2.75 3.30967 2.75 4.00003C2.75 4.69039 3.30964 5.25003 4 5.25003H15.5L15.32 5.01003C14.5899 4.03659 14.3073 3.67112 13.9645 3.411C13.6435 3.16741 13.28 2.98564 12.8925 2.87498ZM17.375 5.25004L16.52 4.11003C16.4971 4.07948 16.4745 4.0493 16.4521 4.0195C15.8134 3.16757 15.4021 2.61886 14.8713 2.21607C14.4021 1.86004 13.8708 1.59439 13.3044 1.43265C12.6637 1.24966 11.9779 1.2498 10.9131 1.25001C10.8759 1.25002 10.8382 1.25003 10.8 1.25003H4C2.48122 1.25003 1.25 2.48125 1.25 4.00003L1.25 17.2321C1.24999 18.045 1.24999 18.7006 1.29336 19.2315C1.33803 19.7781 1.43239 20.2583 1.65873 20.7025C2.01825 21.4081 2.59193 21.9818 3.29754 22.3413C3.74175 22.5676 4.2219 22.662 4.76853 22.7067C5.29944 22.75 5.95505 22.75 6.76788 22.75H17.2321C18.045 22.75 18.7006 22.75 19.2315 22.7067C19.7781 22.662 20.2582 22.5676 20.7025 22.3413C21.4081 21.9818 21.9817 21.4081 22.3413 20.7025C22.5676 20.2583 22.662 19.7781 22.7066 19.2315C22.75 18.7006 22.75 18.045 22.75 17.2322V10.7679C22.75 9.95508 22.75 9.29947 22.7066 8.76856C22.662 8.22192 22.5676 7.74178 22.3413 7.29757C21.9817 6.59196 21.4081 6.01828 20.7025 5.65876C20.2582 5.43242 19.7781 5.33806 19.2315 5.29339C18.732 5.25259 18.1222 5.25017 17.375 5.25004ZM4 6.75003C3.54989 6.75003 3.12503 6.64189 2.75 6.45018V17.2C2.75 18.0525 2.75058 18.6467 2.78838 19.1094C2.82547 19.5632 2.8946 19.824 2.99524 20.0215C3.21095 20.4449 3.55516 20.7891 3.97852 21.0048C4.17604 21.1054 4.4368 21.1746 4.89068 21.2116C5.35331 21.2494 5.94755 21.25 6.8 21.25H17.2C18.0525 21.25 18.6467 21.2494 19.1093 21.2116C19.5632 21.1746 19.824 21.1054 20.0215 21.0048C20.4448 20.7891 20.789 20.4449 21.0048 20.0215C21.1054 19.824 21.1745 19.5632 21.2116 19.1094C21.2408 18.7517 21.2478 18.3153 21.2495 17.7418C19.2952 17.6129 17.75 15.9869 17.75 14C17.75 12.0131 19.2952 10.3872 21.2495 10.2583C21.2478 9.68474 21.2408 9.24839 21.2116 8.89071C21.1745 8.43683 21.1054 8.17607 21.0048 7.97855C20.789 7.55519 20.4448 7.21098 20.0215 6.99527C19.824 6.89463 19.5632 6.82549 19.1093 6.78841C18.6467 6.75061 18.0525 6.75003 17.2 6.75003H4ZM21.25 11.7638C20.125 11.8881 19.25 12.8419 19.25 14C19.25 15.1582 20.125 16.1119 21.25 16.2363V11.7638Z" fill="#4D637C"/>
</svg>
