<svg width="24" height="24" viewBox="0 0 24 24" fill="none" xmlns="http://www.w3.org/2000/svg">
<path fill-rule="evenodd" clip-rule="evenodd" d="M8 2.75C6.20507 2.75 4.75 4.20507 4.75 6C4.75 7.79493 6.20507 9.25 8 9.25C9.79493 9.25 11.25 7.79493 11.25 6C11.25 4.20507 9.79493 2.75 8 2.75ZM3.25 6C3.25 3.37665 5.37665 1.25 8 1.25C10.6234 1.25 12.75 3.37665 12.75 6C12.75 8.62335 10.6234 10.75 8 10.75C5.37665 10.75 3.25 8.62335 3.25 6ZM14.25 2C14.25 1.58579 14.5858 1.25 15 1.25C17.6234 1.25 19.75 3.37665 19.75 6C19.75 8.62335 17.6234 10.75 15 10.75C14.5858 10.75 14.25 10.4142 14.25 10C14.25 9.58579 14.5858 9.25 15 9.25C16.7949 9.25 18.25 7.79493 18.25 6C18.25 4.20507 16.7949 2.75 15 2.75C14.5858 2.75 14.25 2.41421 14.25 2ZM0.25 18.8C0.25 15.7348 2.73482 13.25 5.8 13.25H10.2C13.2652 13.25 15.75 15.7348 15.75 18.8C15.75 20.9815 13.9815 22.75 11.8 22.75H4.2C2.01848 22.75 0.25 20.9815 0.25 18.8ZM5.8 14.75C3.56325 14.75 1.75 16.5632 1.75 18.8C1.75 20.1531 2.8469 21.25 4.2 21.25H11.8C13.1531 21.25 14.25 20.1531 14.25 18.8C14.25 16.5632 12.4368 14.75 10.2 14.75H5.8ZM16.25 14C16.25 13.5858 16.5858 13.25 17 13.25H18.2C21.2652 13.25 23.75 15.7348 23.75 18.8C23.75 20.9815 21.9815 22.75 19.8 22.75H17C16.5858 22.75 16.25 22.4142 16.25 22C16.25 21.5858 16.5858 21.25 17 21.25H19.8C21.1531 21.25 22.25 20.1531 22.25 18.8C22.25 16.5632 20.4368 14.75 18.2 14.75H17C16.5858 14.75 16.25 14.4142 16.25 14Z" fill="#2F384C"/>
</svg>
