<svg width="24" height="24" viewBox="0 0 24 24" fill="none" xmlns="http://www.w3.org/2000/svg">
<path fill-rule="evenodd" clip-rule="evenodd" d="M13.7492 3.35995C12.6372 2.85788 11.3632 2.85788 10.2512 3.35995C9.69308 3.61197 9.12912 4.14917 8.39233 5.22158C7.65856 6.2896 6.82242 7.78116 5.67452 9.83098L5.32352 10.4578C4.21987 12.4286 3.41816 13.8617 2.91018 15.0022C2.40088 16.1457 2.2399 16.8848 2.30835 17.4832C2.44436 18.6721 3.07534 19.7487 4.04627 20.4483C4.53493 20.8004 5.25843 21.021 6.50495 21.1354C7.74824 21.2494 9.3904 21.2501 11.6492 21.2501H12.3512C14.61 21.2501 16.2521 21.2494 17.4954 21.1354C18.742 21.021 19.4655 20.8004 19.9541 20.4483C20.9251 19.7487 21.556 18.6721 21.692 17.4832C21.7605 16.8848 21.5995 16.1457 21.0902 15.0022C20.5822 13.8617 19.7805 12.4286 18.6769 10.4578L18.3259 9.83097C17.178 7.78116 16.3418 6.2896 15.6081 5.22158C14.8713 4.14917 14.3073 3.61197 13.7492 3.35995ZM9.63395 1.99285C11.1383 1.31358 12.8621 1.31358 14.3664 1.99285C15.3088 2.41835 16.0654 3.23834 16.8444 4.37218C17.6218 5.50366 18.4909 7.05563 19.6145 9.06213L20.0056 9.76046C21.0852 11.6883 21.9211 13.1811 22.4604 14.3919C23.0017 15.6072 23.2973 16.6488 23.1823 17.6536C22.9983 19.2622 22.1446 20.7187 20.831 21.6653C20.0104 22.2565 18.9573 22.5076 17.6324 22.6291C16.3125 22.7502 14.6016 22.7502 12.3921 22.7501H11.6083C9.39883 22.7502 7.68788 22.7502 6.36795 22.6291C5.04312 22.5076 3.98997 22.2565 3.16937 21.6653C1.85576 20.7187 1.00208 19.2622 0.818072 17.6536C0.703121 16.6488 0.99866 15.6072 1.53995 14.3919C2.07925 13.1811 2.91523 11.6883 3.9948 9.7605L4.38584 9.06222C5.5095 7.05567 6.37862 5.50368 7.156 4.37218C7.93499 3.23834 8.69159 2.41835 9.63395 1.99285ZM12.0002 8.25015C12.4144 8.25015 12.7502 8.58594 12.7502 9.00015V13.0001C12.7502 13.4144 12.4144 13.7501 12.0002 13.7501C11.586 13.7501 11.2502 13.4144 11.2502 13.0001V9.00015C11.2502 8.58594 11.586 8.25015 12.0002 8.25015ZM10.7502 16.5001C10.7502 15.8098 11.3098 15.2501 12.0002 15.2501C12.6906 15.2501 13.2502 15.8098 13.2502 16.5001C13.2502 17.1905 12.6906 17.7501 12.0002 17.7501C11.3098 17.7501 10.7502 17.1905 10.7502 16.5001Z" fill="#4D637C"/>
</svg>
