<svg width="24" height="24" viewBox="0 0 24 24" fill="none" xmlns="http://www.w3.org/2000/svg">
<path fill-rule="evenodd" clip-rule="evenodd" d="M13.1332 2.30718C12.3917 2.10203 11.6084 2.10203 10.8668 2.30718C10.4834 2.41325 10.0909 2.61075 9.55706 2.97716C9.01543 3.34893 8.37127 3.86366 7.47098 4.5839L5.47098 6.1839C4.33583 7.09202 3.88235 7.46289 3.559 7.90895C3.26019 8.32116 3.03787 8.78372 2.90265 9.27456C2.75633 9.8057 2.75002 10.3915 2.75002 11.8452V14.0002C2.75002 15.4127 2.7506 16.427 2.81565 17.2231C2.87998 18.0105 3.00361 18.5182 3.21324 18.9297C3.6207 19.7293 4.27087 20.3795 5.07056 20.787C5.48199 20.9966 5.98972 21.1202 6.7771 21.1846C7.19817 21.219 7.68027 21.2353 8.25002 21.2431V14.9749C8.25001 14.5305 8.25001 14.1594 8.27079 13.8548C8.29243 13.5377 8.33907 13.2382 8.45935 12.9478C8.73846 12.274 9.27381 11.7386 9.94764 11.4595C10.238 11.3392 10.5376 11.2926 10.8547 11.271C11.1593 11.2502 11.5303 11.2502 11.9748 11.2502H12.0253C12.4697 11.2502 12.8408 11.2502 13.1454 11.271C13.4625 11.2926 13.762 11.3392 14.0524 11.4595C14.7262 11.7386 15.2616 12.274 15.5407 12.9478C15.661 13.2382 15.7076 13.5377 15.7292 13.8548C15.75 14.1594 15.75 14.5305 15.75 14.9749V21.2431C16.3198 21.2353 16.8019 21.219 17.2229 21.1846C18.0103 21.1202 18.5181 20.9966 18.9295 20.787C19.7292 20.3795 20.3793 19.7293 20.7868 18.9297C20.9964 18.5182 21.1201 18.0105 21.1844 17.2231C21.2494 16.427 21.25 15.4127 21.25 14.0002V11.8452C21.25 10.3915 21.2437 9.8057 21.0974 9.27456C20.9622 8.78372 20.7398 8.32116 20.441 7.90895C20.1177 7.46289 19.6642 7.09201 18.5291 6.18389L16.5291 4.5839C15.6288 3.86366 14.9846 3.34893 14.443 2.97716C13.9092 2.61075 13.5166 2.41325 13.1332 2.30718ZM15.0434 22.749C15.9494 22.7454 16.7051 22.7319 17.3451 22.6796C18.2252 22.6077 18.9523 22.4588 19.6105 22.1235C20.6924 21.5722 21.572 20.6926 22.1233 19.6106C22.4586 18.9525 22.6075 18.2254 22.6794 17.3453C22.75 16.4809 22.75 15.4055 22.75 14.0338V11.8452C22.75 11.8064 22.75 11.768 22.75 11.7301C22.7502 10.4281 22.7503 9.62683 22.5435 8.87617C22.3606 8.21209 22.0598 7.58628 21.6555 7.02858C21.1985 6.39817 20.5727 5.89767 19.556 5.0845C19.5264 5.0608 19.4964 5.03683 19.4661 5.01259L17.4432 3.39427C16.5708 2.69634 15.8841 2.14698 15.2918 1.74046C14.6866 1.32504 14.1388 1.02902 13.5332 0.861479C12.5299 0.583934 11.4701 0.583934 10.4669 0.861479C9.86129 1.02902 9.31342 1.32504 8.70819 1.74046C8.11594 2.14698 7.42925 2.69634 6.55686 3.39426L4.53394 5.01259C4.50363 5.03684 4.47367 5.0608 4.44404 5.0845C3.4273 5.89767 2.80151 6.39817 2.34453 7.02858C1.94025 7.58628 1.63947 8.21209 1.45653 8.87617C1.24973 9.62683 1.24984 10.4282 1.25001 11.7301C1.25001 11.768 1.25002 11.8064 1.25002 11.8452L1.25002 14.0338C1.25002 15.4055 1.25001 16.4809 1.32063 17.3453C1.39254 18.2254 1.5414 18.9525 1.87673 19.6106C2.428 20.6926 3.30764 21.5722 4.38957 22.1235C5.0477 22.4588 5.77481 22.6077 6.65496 22.6796C7.29494 22.7319 8.05065 22.7454 8.95667 22.749C8.97101 22.7498 8.98547 22.7502 9.00002 22.7502C9.01275 22.7502 9.0254 22.7499 9.03798 22.7493C9.33151 22.7502 9.64062 22.7502 9.96644 22.7502H14.0336C14.3594 22.7502 14.6685 22.7502 14.9621 22.7493C14.9746 22.7499 14.9873 22.7502 15 22.7502C15.0146 22.7502 15.029 22.7498 15.0434 22.749ZM14.25 21.2502V15.0002C14.25 14.524 14.2496 14.2044 14.2327 13.9569C14.2163 13.7162 14.1868 13.599 14.1549 13.5218C14.028 13.2156 13.7847 12.9722 13.4784 12.8453C13.4012 12.8134 13.284 12.7839 13.0433 12.7675C12.7958 12.7506 12.4762 12.7502 12 12.7502C11.5238 12.7502 11.2042 12.7506 10.9568 12.7675C10.716 12.7839 10.5988 12.8134 10.5217 12.8453C10.2154 12.9722 9.97204 13.2156 9.84517 13.5218C9.81321 13.599 9.78374 13.7162 9.76731 13.9569C9.75043 14.2044 9.75002 14.524 9.75002 15.0002V21.2502C9.83195 21.2502 9.91527 21.2502 10 21.2502H14C14.0848 21.2502 14.1681 21.2502 14.25 21.2502Z" fill="white"/>
</svg>
