<svg width="24" height="24" viewBox="0 0 24 24" fill="none" xmlns="http://www.w3.org/2000/svg">
<path fill-rule="evenodd" clip-rule="evenodd" d="M4.53033 0.46967C4.82322 0.762563 4.82322 1.23744 4.53033 1.53033L1.53033 4.53033C1.23744 4.82322 0.762563 4.82322 0.46967 4.53033C0.176777 4.23744 0.176777 3.76256 0.46967 3.46967L3.46967 0.46967C3.76256 0.176777 4.23744 0.176777 4.53033 0.46967ZM19.4697 0.46967C19.7626 0.176777 20.2374 0.176777 20.5303 0.46967L23.5303 3.46967C23.8232 3.76256 23.8232 4.23744 23.5303 4.53033C23.2374 4.82322 22.7626 4.82322 22.4697 4.53033L19.4697 1.53033C19.1768 1.23744 19.1768 0.762563 19.4697 0.46967ZM12 2.75C6.89137 2.75 2.75 6.89137 2.75 12C2.75 17.1086 6.89137 21.25 12 21.25C17.1086 21.25 21.25 17.1086 21.25 12C21.25 6.89137 17.1086 2.75 12 2.75ZM1.25 12C1.25 6.06294 6.06294 1.25 12 1.25C17.9371 1.25 22.75 6.06294 22.75 12C22.75 17.9371 17.9371 22.75 12 22.75C6.06294 22.75 1.25 17.9371 1.25 12ZM16.5303 8.46967C16.8232 8.76256 16.8232 9.23744 16.5303 9.53033L11.5303 14.5303C11.2374 14.8232 10.7626 14.8232 10.4697 14.5303L8.46967 12.5303C8.17678 12.2374 8.17678 11.7626 8.46967 11.4697C8.76256 11.1768 9.23744 11.1768 9.53033 11.4697L11 12.9393L15.4697 8.46967C15.7626 8.17678 16.2374 8.17678 16.5303 8.46967Z" fill="#4D637C"/>
</svg>
