<svg width="24" height="24" viewBox="0 0 24 24" fill="none" xmlns="http://www.w3.org/2000/svg">
<path fill-rule="evenodd" clip-rule="evenodd" d="M18.4161 2.37604C18.7608 2.60581 18.8539 3.07146 18.6242 3.4161L6.62416 21.4161C6.3944 21.7608 5.92874 21.8539 5.5841 21.6241C5.23945 21.3944 5.14632 20.9287 5.37608 20.5841L17.3761 2.58405C17.6058 2.23941 18.0715 2.14628 18.4161 2.37604ZM6 3.75008C4.75736 3.75008 3.75 4.75744 3.75 6.00008C3.75 7.24272 4.75736 8.25008 6 8.25008C7.24264 8.25008 8.25 7.24272 8.25 6.00008C8.25 4.75744 7.24264 3.75008 6 3.75008ZM2.25 6.00008C2.25 3.92901 3.92893 2.25008 6 2.25008C8.07107 2.25008 9.75 3.92901 9.75 6.00008C9.75 8.07115 8.07107 9.75008 6 9.75008C3.92893 9.75008 2.25 8.07115 2.25 6.00008ZM18 15.7501C16.7574 15.7501 15.75 16.7574 15.75 18.0001C15.75 19.2427 16.7574 20.2501 18 20.2501C19.2426 20.2501 20.25 19.2427 20.25 18.0001C20.25 16.7574 19.2426 15.7501 18 15.7501ZM14.25 18.0001C14.25 15.929 15.9289 14.2501 18 14.2501C20.0711 14.2501 21.75 15.929 21.75 18.0001C21.75 20.0711 20.0711 21.7501 18 21.7501C15.9289 21.7501 14.25 20.0711 14.25 18.0001Z" fill="#4D637C"/>
</svg>
