<svg width="24" height="24" viewBox="0 0 24 24" fill="none" xmlns="http://www.w3.org/2000/svg">
<path fill-rule="evenodd" clip-rule="evenodd" d="M12 2.75C6.89137 2.75 2.75 6.89137 2.75 12C2.75 17.1086 6.89137 21.25 12 21.25C17.1086 21.25 21.25 17.1086 21.25 12C21.25 6.89137 17.1086 2.75 12 2.75ZM1.25 12C1.25 6.06294 6.06294 1.25 12 1.25C17.9371 1.25 22.75 6.06294 22.75 12C22.75 17.9371 17.9371 22.75 12 22.75C6.06294 22.75 1.25 17.9371 1.25 12ZM12 5.75C12.4142 5.75 12.75 6.08579 12.75 6.5V7.25H13C14.5188 7.25 15.75 8.48122 15.75 10C15.75 10.4142 15.4142 10.75 15 10.75C14.5858 10.75 14.25 10.4142 14.25 10C14.25 9.30964 13.6904 8.75 13 8.75H12.75V11.4594L14.0451 11.8911C15.0632 12.2305 15.75 13.1833 15.75 14.2566C15.75 15.6337 14.6337 16.75 13.2566 16.75H12.75V17.5C12.75 17.9142 12.4142 18.25 12 18.25C11.5858 18.25 11.25 17.9142 11.25 17.5V16.75H11C9.48122 16.75 8.25 15.5188 8.25 14C8.25 13.5858 8.58579 13.25 9 13.25C9.41421 13.25 9.75 13.5858 9.75 14C9.75 14.6904 10.3096 15.25 11 15.25H11.25V12.5406L9.95493 12.1089C8.93676 11.7695 8.25 10.8167 8.25 9.74342C8.25 8.36634 9.36634 7.25 10.7434 7.25H11.25V6.5C11.25 6.08579 11.5858 5.75 12 5.75ZM11.25 8.75H10.7434C10.1948 8.75 9.75 9.19477 9.75 9.74342C9.75 10.171 10.0236 10.5506 10.4293 10.6859L11.25 10.9594V8.75ZM12.75 13.0406V15.25H13.2566C13.8052 15.25 14.25 14.8052 14.25 14.2566C14.25 13.829 13.9764 13.4494 13.5707 13.3141L12.75 13.0406Z" fill="#4D637C"/>
</svg>
